<?xml version="1.0" standalone="no"?>
<!DOCTYPE svg PUBLIC "-//W3C//DTD SVG 1.1//EN" "http://www.w3.org/Graphics/SVG/1.1/DTD/svg11.dtd" >
<svg xmlns="http://www.w3.org/2000/svg" xmlns:xlink="http://www.w3.org/1999/xlink" version="1.1">
<metadata>
Created by FontForge 20161013 at Mon Mar  9 00:16:44 2015
 By ,,,
Copyright (c) 2013 by Design by Anuthin Wongsunkakon (2005) Revival by Stawix Ruecha (2013). For Cadson Demak All rights reserved.
</metadata>
<defs>
<font id="Amino-Regular3" horiz-adv-x="639" >
  <font-face 
    font-family="Amino 12"
    font-weight="400"
    font-stretch="normal"
    units-per-em="1000"
    panose-1="2 0 0 0 0 0 0 0 0 0"
    ascent="774"
    descent="-226"
    x-height="502"
    cap-height="706"
    bbox="-119 -248 1188 991"
    underline-thickness="20"
    underline-position="-120"
    unicode-range="U+0020-FB02"
  />
<missing-glyph horiz-adv-x="500" 
d="M0 0v700h500v-700h-500zM250 395l170 255h-340zM280 350l170 -255v510zM80 50h340l-170 255zM50 605v-510l170 255z" />
    <glyph glyph-name="fi" unicode="fi" horiz-adv-x="707" 
d="M57 -82l77 442l-95 -3l25 145h100q20 101 93.5 156.5t181.5 55.5q68 0 111.5 -22t43.5 -69q0 -34 -35 -77q-49 28 -100 28q-54 0 -76.5 -18t-29.5 -54h361l-88 -502h-204l63 361h-152l-77 -443q-12 -68 -46 -98.5t-100 -30.5q-61 0 -97 20q32 37 44 109z" />
    <glyph glyph-name="fl" unicode="fl" horiz-adv-x="769" 
d="M56 -82l78 442l-95 -3l25 145h100q43 212 341 212q85 0 167 -18.5t129 -47.5l-114 -648h-203l97 553q-39 21 -119 21q-95 0 -109 -72h139l-25 -145l-134 4l-78 -443q-12 -68 -46 -98.5t-100 -30.5q-61 0 -97 20q30 34 44 109z" />
    <glyph glyph-name=".notdef" horiz-adv-x="500" 
d="M0 0v700h500v-700h-500zM250 395l170 255h-340zM280 350l170 -255v510zM80 50h340l-170 255zM50 605v-510l170 255z" />
    <glyph glyph-name=".null" horiz-adv-x="0" 
 />
    <glyph glyph-name="nonmarkingreturn" horiz-adv-x="333" 
 />
    <glyph glyph-name="space" unicode=" " horiz-adv-x="209" 
 />
    <glyph glyph-name="exclam" unicode="!" horiz-adv-x="306" 
d="M360 702l-108 -454h-170l52 454h226zM25 74q0 57 33.5 92.5t97.5 35.5q48 0 74 -23.5t26 -62.5q0 -57 -34 -92.5t-98 -35.5q-48 0 -73.5 23.5t-25.5 62.5z" />
    <glyph glyph-name="quotedbl" unicode="&#x22;" horiz-adv-x="431" 
d="M292 700l-60 -220h-126l18 220h168zM495 700l-60 -220h-125l18 220h167z" />
    <glyph glyph-name="numbersign" unicode="#" 
d="M26 206l18 103h80q10 28 28 84h-63l18 103h80l70 206h174l-70 -206h80l70 206h174l-70 -206h62l-18 -103h-79q-9 -28 -29 -84h63l-18 -103h-80l-71 -206h-174l71 206h-79l-72 -206h-173l71 206h-63zM326 393l-28 -84h80l28 84h-80z" />
    <glyph glyph-name="dollar" unicode="$" 
d="M216 -100l15 89q-214 6 -214 125q0 55 56 128q65 -64 189 -78l18 104q-92 35 -144.5 86t-52.5 130q0 92 76 155.5t200 72.5l17 94h106l-18 -95q33 -3 62.5 -9t61 -18.5t50 -34.5t18.5 -52q0 -67 -59 -126q-48 53 -164 65l-16 -95q49 -19 79.5 -35t61 -40.5t45 -57.5
t14.5 -77q0 -211 -280 -240l-15 -91h-106zM404 208q0 18 -23 30l-11 -66q34 12 34 36zM296 502q0 -18 21 -29l10 62q-31 -7 -31 -33z" />
    <glyph glyph-name="percent" unicode="%" horiz-adv-x="751" 
d="M90 0l469 702h165l-469 -702h-165zM101 526q0 83 50 135.5t122 52.5q58 0 93.5 -35t35.5 -95q0 -83 -50.5 -135.5t-122.5 -52.5q-57 0 -92.5 35t-35.5 95zM277 585q0 39 -14 39q-13 0 -25 -32t-12 -68q0 -38 12 -38q14 0 26.5 32t12.5 67zM412 118q0 83 50 135.5
t122 52.5q58 0 93.5 -35t35.5 -95q0 -83 -50.5 -135.5t-122.5 -52.5q-57 0 -92.5 35t-35.5 95zM588 177q0 39 -14 39q-13 0 -25 -32t-12 -68q0 -38 12 -38q14 0 26.5 32t12.5 67z" />
    <glyph glyph-name="ampersand" unicode="&#x26;" horiz-adv-x="673" 
d="M534 368q57 5 84 -21.5t27 -64.5q0 -56 -62 -128l63 -90l-11 -64h-179l-28 39q-76 -51 -175 -51q-101 0 -162 53t-61 137q0 86 50 143t124 84q-16 17 -29 48t-13 61q0 80 64 140t180 60q97 0 146.5 -47t49.5 -116q0 -63 -43.5 -118t-104.5 -88h1l41 -61q29 29 38 84z
M305 158q22 0 35 7l-85 118q-22 -24 -22 -57q0 -30 19.5 -49t52.5 -19zM417 535q0 15 -6 26.5t-17 11.5q-19 0 -29.5 -18t-10.5 -38q0 -27 22 -53q41 23 41 71z" />
    <glyph glyph-name="quotesingle" unicode="'" horiz-adv-x="228" 
d="M292 700l-60 -220h-126l18 220h168z" />
    <glyph glyph-name="parenleft" unicode="(" horiz-adv-x="354" 
d="M65 224q0 303 279 492l85 -71q-86 -101 -129 -204t-43 -232q0 -139 53 -242l-111 -71q-65 58 -99.5 143t-34.5 185z" />
    <glyph glyph-name="parenright" unicode=")" horiz-adv-x="354" 
d="M338 389q0 -304 -280 -493l-84 71q85 101 128 204t43 232q0 140 -51 242l110 71q65 -58 99.5 -143t34.5 -184z" />
    <glyph glyph-name="asterisk" unicode="*" horiz-adv-x="380" 
d="M421 545l-85 -26h2l45 -65l-97 -77l-45 81l-78 -83l-61 79l65 65h2q-14 4 -41 14t-37 13l54 103l74 -32l11 85h109l-19 -84l82 32z" />
    <glyph glyph-name="plus" unicode="+" 
d="M212 24l34 192h-179l28 157h179l34 191h164l-34 -191h178l-28 -157h-178l-34 -192h-164z" />
    <glyph glyph-name="comma" unicode="," horiz-adv-x="306" 
d="M24 76q0 55 34 90.5t94 35.5q102 0 102 -98q0 -52 -39 -119.5t-94 -128.5l-83 37q39 49 52 100q-32 6 -49 28.5t-17 54.5z" />
    <glyph glyph-name="hyphen" unicode="-" horiz-adv-x="428" 
d="M57 360h382l-28 -157h-382z" />
    <glyph glyph-name="period" unicode="." horiz-adv-x="306" 
d="M25 74q0 57 33.5 92.5t97.5 35.5q48 0 74 -23.5t26 -62.5q0 -57 -34 -92.5t-98 -35.5q-48 0 -73.5 23.5t-25.5 62.5z" />
    <glyph glyph-name="slash" unicode="/" horiz-adv-x="348" 
d="M-74 -100l338 802h181l-338 -802h-181z" />
    <glyph glyph-name="zero" unicode="0" 
d="M43 269q0 201 101 323t264 122q117 0 184.5 -74.5t67.5 -206.5q0 -204 -97 -324.5t-268 -120.5q-115 0 -183.5 76t-68.5 205zM442 417q0 114 -63 114q-36 0 -63.5 -38t-40.5 -93.5t-13 -115.5q0 -113 65 -113q50 0 82.5 75.5t32.5 170.5z" />
    <glyph glyph-name="one" unicode="1" 
d="M286 468l-111 -60l-43 127l227 169h185l-93 -525l146 3l-32 -182h-507l32 182l145 -2z" />
    <glyph glyph-name="two" unicode="2" 
d="M546 0h-523l30 166q86 37 160 84.5t128 109t54 116.5t-63 55q-45 0 -93.5 -14.5t-80.5 -37.5q-26 41 -26 93q0 50 38.5 83.5t93.5 46t124 12.5q120 0 176.5 -51t56.5 -142q0 -56 -23.5 -107t-67.5 -94t-86.5 -75t-99.5 -65l235 3z" />
    <glyph glyph-name="three" unicode="3" 
d="M292 171q107 0 107 83q0 54 -79 54h-100l-28 95l186 120q-40 0 -122 -1t-123 -1l32 181h495l-30 -168l-162 -103q146 -28 146 -172q0 -131 -90.5 -201t-245.5 -70q-43 0 -79.5 5.5t-73 18.5t-57.5 40t-21 65q0 58 60 122q66 -68 185 -68z" />
    <glyph glyph-name="four" unicode="4" 
d="M615 126h-93l-22 -126h-213l22 126h-302l28 161l391 417h198l-71 -405h93zM340 299l22 132l-121 -132h99z" />
    <glyph glyph-name="five" unicode="5" 
d="M275 171q123 0 123 91q0 62 -91 62h-226l94 378h478l-32 -181l-286 2l-12 -52h38q257 0 257 -196q0 -144 -92 -215.5t-256 -71.5q-42 0 -80.5 5.5t-76.5 18.5t-60.5 40t-22.5 65q0 59 60 123q24 -32 73.5 -50.5t111.5 -18.5z" />
    <glyph glyph-name="six" unicode="6" 
d="M452 541q-70 0 -102.5 -30.5t-46.5 -85.5q60 39 143 39t130.5 -43.5t47.5 -131.5q0 -140 -90.5 -220.5t-214.5 -80.5q-125 0 -192.5 73.5t-67.5 198.5q0 124 44.5 226t134 165t208.5 63q33 0 64.5 -5.5t61 -17t48 -34.5t18.5 -54q0 -25 -15.5 -56t-38.5 -54
q-56 48 -132 48zM361 319q-48 0 -93 -36q-3 -28 -1.5 -55t19 -47t48.5 -20q36 0 57.5 25.5t21.5 74.5q0 27 -14 42.5t-38 15.5z" />
    <glyph glyph-name="seven" unicode="7" 
d="M116 520l32 182h533l-30 -172l-359 -530h-237l352 520h-291z" />
    <glyph glyph-name="eight" unicode="8" 
d="M304 -12q-126 0 -201 45t-75 134q0 75 53 130.5t113 74.5q-32 16 -55 52t-23 84q0 88 81.5 147t212.5 59q111 0 174 -43t63 -126q0 -60 -39.5 -105.5t-90.5 -67.5q40 -15 71.5 -57t31.5 -100q0 -106 -83.5 -166.5t-232.5 -60.5zM388 554q-26 0 -44 -17t-18 -41
q0 -39 41 -58q27 10 46.5 30t19.5 44q0 18 -12 30t-33 12zM316 150q43 0 67 21t24 55q0 26 -19 47.5t-45 29.5q-35 -10 -64.5 -37.5t-29.5 -59.5q0 -26 17.5 -41t49.5 -15z" />
    <glyph glyph-name="nine" unicode="9" 
d="M251 161q117 0 149 116q-64 -39 -144 -39q-83 0 -130.5 42.5t-47.5 126.5q0 140 93 223.5t224 83.5q121 0 184.5 -70.5t63.5 -201.5q0 -203 -105 -328.5t-290 -125.5q-106 0 -159 38q-24 17 -24 52q0 54 53 131q58 -48 133 -48zM342 383q48 0 93 36q8 55 -8.5 88.5
t-49.5 33.5q-88 0 -88 -100q0 -27 13.5 -42.5t39.5 -15.5z" />
    <glyph glyph-name="colon" unicode=":" horiz-adv-x="317" 
d="M30 74q0 57 33.5 92.5t97.5 35.5q48 0 74 -23.5t26 -62.5q0 -57 -34 -92.5t-98 -35.5q-48 0 -73.5 23.5t-25.5 62.5zM86 386q0 57 33.5 92.5t97.5 35.5q48 0 74 -23.5t26 -62.5q0 -57 -34 -92.5t-98 -35.5q-48 0 -73.5 23.5t-25.5 62.5z" />
    <glyph glyph-name="semicolon" unicode=";" horiz-adv-x="317" 
d="M86 386q0 57 33.5 92.5t97.5 35.5q48 0 74 -23.5t26 -62.5q0 -57 -34 -92.5t-98 -35.5q-48 0 -73.5 23.5t-25.5 62.5zM30 76q0 55 34 90.5t94 35.5q102 0 102 -98q0 -52 -39 -119.5t-94 -128.5l-83 37q39 49 52 100q-32 6 -49 28.5t-17 54.5z" />
    <glyph glyph-name="less" unicode="&#x3c;" 
d="M87 262l19 110l516 258l-33 -191l-281 -125l236 -126l-33 -183z" />
    <glyph glyph-name="equal" unicode="=" 
d="M565 106h-513l26 149h513zM607 344h-513l26 149h513z" />
    <glyph glyph-name="greater" unicode="&#x3e;" 
d="M604 372l-20 -110l-514 -257l33 191l280 125l-236 126l33 183z" />
    <glyph glyph-name="question" unicode="?" horiz-adv-x="551" 
d="M348 714q122 0 184.5 -44t62.5 -120q0 -43 -18.5 -78t-46 -60.5t-56.5 -48.5t-54 -53t-34 -62h-186q8 33 36 68t57 58.5t52 54.5t23 60q0 42 -69 42q-109 0 -179 -46q-22 34 -22 85q0 42 22.5 71.5t60.5 44.5t79 21.5t88 6.5zM152 74q0 57 33.5 92.5t97.5 35.5
q48 0 74 -23.5t26 -62.5q0 -57 -34 -92.5t-98 -35.5q-48 0 -73.5 23.5t-25.5 62.5z" />
    <glyph glyph-name="at" unicode="@" horiz-adv-x="978" 
d="M695 63q70 0 134 96.5t64 233.5q0 117 -67 182t-195 65q-141 0 -259 -69.5t-185.5 -186.5t-67.5 -254q0 -126 76 -196.5t208 -70.5q130 0 235 53q13 -17 13 -43q0 -25 -24 -36q-36 -17 -100 -30t-124 -13q-169 0 -268.5 86.5t-99.5 247.5q0 154 75 286.5t213.5 213.5
t310.5 81q165 0 254 -84.5t89 -230.5q0 -168 -93.5 -284t-202.5 -116q-81 0 -94 67q-85 -61 -185 -61q-80 0 -122.5 45t-42.5 122q0 88 45.5 167.5t127 129.5t177.5 50q98 0 188 -53l-117 -338q-8 -23 2 -41.5t35 -18.5zM501 169l72 206q-49 8 -87.5 -22.5t-57 -75
t-18.5 -88.5q0 -49 32 -49q36 0 59 29z" />
    <glyph glyph-name="A" unicode="A" horiz-adv-x="732" 
d="M450 275l-28 188l-96 -188h124zM354 704h113q55 0 82.5 -25t38.5 -75l131 -604h-219l-18 110h-248l-55 -110h-226z" />
    <glyph glyph-name="B" unicode="B" horiz-adv-x="677" 
d="M478 495q0 17 -11 27.5t-30 10.5h-112l-17 -94h109q61 0 61 56zM459 237q0 47 -68 47h-111l-20 -115h112q87 0 87 68zM21 0l124 702h304q125 0 184.5 -44t59.5 -117q0 -57 -33.5 -101.5t-82.5 -64.5q40 -15 65.5 -52t25.5 -88q0 -106 -80.5 -170.5t-243.5 -64.5h-323z
" />
    <glyph glyph-name="C" unicode="C" horiz-adv-x="619" 
d="M441 531q-47 0 -81.5 -20.5t-53 -55t-27 -73t-8.5 -82.5q0 -129 104 -129q108 0 197 75q30 -47 30 -98q0 -80 -72.5 -120t-187.5 -40q-148 0 -221 78t-73 224q0 184 106.5 304t301.5 120q89 0 153 -32t64 -97q0 -28 -20 -64.5t-48 -60.5q-54 71 -164 71z" />
    <glyph glyph-name="D" unicode="D" horiz-adv-x="703" 
d="M268 181h80q74 0 114 63.5t40 151.5q0 59 -26.5 92t-78.5 33h-69zM316 0h-295l124 702h266q309 0 309 -288q0 -87 -23.5 -160.5t-71.5 -131t-127 -90t-182 -32.5z" />
    <glyph glyph-name="E" unicode="E" horiz-adv-x="588" 
d="M428 278h-145l-17 -99h298l-32 -179h-511l124 702h510l-31 -179h-297l-15 -84h265l-10 -51q-12 -60 -44 -85t-95 -25z" />
    <glyph glyph-name="F" unicode="F" horiz-adv-x="555" 
d="M537 244h-258l-43 -244h-215l124 702h491l-31 -179h-276l-20 -110h258z" />
    <glyph glyph-name="G" unicode="G" horiz-adv-x="683" 
d="M491 422h203l-65 -366q-120 -68 -274 -68q-153 0 -230 78t-77 218q0 190 113.5 310t316.5 120q57 0 105.5 -10.5t86 -41t37.5 -76.5q0 -29 -19.5 -64.5t-48.5 -59.5q-56 69 -168 69q-102 0 -151 -62.5t-49 -164.5q0 -133 118 -133q47 0 80 11l17 99h-122l8 39
q11 56 38.5 79t80.5 23z" />
    <glyph glyph-name="H" unicode="H" horiz-adv-x="734" 
d="M342 585l-25 -143h198l45 260h216l-124 -702h-216l46 259h-198l-46 -259h-217l103 585q13 69 6 109q43 12 107 12q67 0 91.5 -30t13.5 -91z" />
    <glyph glyph-name="I" unicode="I" horiz-adv-x="321" 
d="M342 585l-104 -585h-215l103 585q13 69 6 109q43 12 106 12q67 0 91 -30t13 -91z" />
    <glyph glyph-name="J" unicode="J" horiz-adv-x="533" 
d="M174 173q96 0 112 93l78 436h217l-78 -438q-26 -144 -101 -210t-199 -66q-34 0 -65 4.5t-65.5 17t-55 38.5t-20.5 64q0 71 55 131q19 -32 55.5 -51t66.5 -19z" />
    <glyph glyph-name="K" unicode="K" horiz-adv-x="704" 
d="M21 0l103 585q13 69 6 109q43 12 107 12q67 0 91.5 -30t13.5 -91l-20 -111l239 228h244l-302 -281l136 -304q36 -79 67 -106q-38 -23 -117 -23q-41 0 -70 8.5t-49 29t-31 38.5t-27 53l-66 159l-71 -67l-37 -209h-217z" />
    <glyph glyph-name="L" unicode="L" horiz-adv-x="574" 
d="M21 0l103 585q13 69 6 109q43 12 107 12q67 0 91.5 -30t13.5 -91l-71 -402h289l-33 -183h-506z" />
    <glyph glyph-name="M" unicode="M" horiz-adv-x="836" 
d="M483 180h-126l-26 75q-18 45 -33 113q-3 -38 -16 -122l-44 -246h-217l124 700h212l102 -278l200 278h220l-124 -700h-217l44 246q7 46 31 127q-67 -104 -77 -118z" />
    <glyph glyph-name="N" unicode="N" horiz-adv-x="749" 
d="M791 702l-124 -702h-204l-163 358l-64 -358h-215l124 702h205l164 -359l63 359h214z" />
    <glyph glyph-name="O" unicode="O" horiz-adv-x="732" 
d="M48 281q0 191 106 312t301 121q143 0 218.5 -79t75.5 -216q0 -90 -25.5 -167.5t-74.5 -136.5t-127.5 -93t-179.5 -34q-143 0 -218.5 78.5t-75.5 214.5zM525 403q0 59 -23.5 93.5t-71.5 34.5q-80 0 -119.5 -68.5t-39.5 -163.5q0 -59 23.5 -93.5t71.5 -34.5q79 0 119 68.5
t40 163.5z" />
    <glyph glyph-name="P" unicode="P" horiz-adv-x="646" 
d="M380 220h-103l-39 -220h-217l124 702h308q234 0 234 -205q0 -123 -76 -200t-231 -77zM329 523l-22 -124h98q32 0 48 22.5t16 53.5q0 48 -42 48h-98z" />
    <glyph glyph-name="Q" unicode="Q" horiz-adv-x="732" 
d="M48 281q0 191 106 312t301 121q143 0 218.5 -79t75.5 -216q0 -184 -95.5 -300.5t-278.5 -109.5q80 -45 167 -45q68 0 105 23q-9 -108 -50.5 -146.5t-113.5 -38.5q-41 0 -75 16t-61 42.5t-50.5 55t-56 60.5t-65.5 52q-127 76 -127 253zM525 403q0 59 -23.5 93.5
t-71.5 34.5q-80 0 -119.5 -68.5t-39.5 -163.5q0 -59 23.5 -93.5t71.5 -34.5q79 0 119 68.5t40 163.5z" />
    <glyph glyph-name="R" unicode="R" horiz-adv-x="663" 
d="M329 523l-20 -112h95q77 0 77 68q0 44 -49 44h-103zM544 282l56 -165q25 -74 59 -106q-39 -23 -114 -23q-79 0 -110.5 30.5t-51.5 98.5l-36 123h-66l-43 -240h-217l124 702h319q234 0 234 -188q0 -82 -42.5 -144t-111.5 -88z" />
    <glyph glyph-name="S" unicode="S" horiz-adv-x="618" 
d="M289 163q97 0 97 41q0 28 -91 58q-102 32 -156.5 84t-54.5 136q0 102 83 167t225 65q63 0 115.5 -10.5t91.5 -38t39 -69.5q0 -57 -59 -125q-32 33 -87 50.5t-116 17.5q-79 0 -79 -35q0 -16 20 -27.5t65 -28.5q52 -20 86 -36.5t67 -42.5t49 -61.5t16 -82.5
q0 -116 -87 -176.5t-236 -60.5q-73 0 -129.5 12.5t-93 43t-36.5 76.5q0 62 51 122q30 -35 89.5 -57t130.5 -22z" />
    <glyph glyph-name="T" unicode="T" horiz-adv-x="625" 
d="M96 700h621l-33 -183l-201 3l-92 -520h-217l92 520l-203 -3z" />
    <glyph glyph-name="U" unicode="U" horiz-adv-x="726" 
d="M392 585l-50 -281q-12 -71 6 -102t71 -31q54 0 83.5 31t41.5 102l71 398h216l-72 -405q-54 -309 -372 -309t-262 309l52 288q13 69 6 109q43 12 106 12q124 0 103 -121z" />
    <glyph glyph-name="V" unicode="V" horiz-adv-x="716" 
d="M221 -2l-115 587q-12 64 -38 109q38 12 107 12q75 0 107 -30t41 -91l47 -327l221 444h231l-387 -704h-214z" />
    <glyph glyph-name="W" unicode="W" horiz-adv-x="1086" 
d="M311 585l14 -330l213 447h198l55 -447l177 447h220l-334 -704h-215l-53 418l-201 -418h-215l-70 587q-7 65 -29 109q39 12 106 12q75 0 103.5 -29.5t30.5 -91.5z" />
    <glyph glyph-name="X" unicode="X" horiz-adv-x="739" 
d="M429 75l-54 127l-162 -202h-244l315 358l-118 229q-42 81 -86 104q44 14 123 14q88 0 126 -19.5t58 -67.5l44 -103l149 185h239l-296 -341l131 -253q42 -81 86 -104q-44 -14 -127 -14q-88 0 -126 19.5t-58 67.5z" />
    <glyph glyph-name="Y" unicode="Y" horiz-adv-x="687" 
d="M350 585l38 -135l167 252h242l-329 -429h1l-48 -273h-216l48 273h1l-128 312q-33 80 -54 109q36 12 109 12q78 0 115 -30t54 -91z" />
    <glyph glyph-name="Z" unicode="Z" horiz-adv-x="604" 
d="M98 592q0 59 35 84.5t103 25.5h439l-30 -172l-366 -352l310 3l-32 -181h-570l30 172l367 352l-140 -1q-75 -1 -123 -28q-23 41 -23 97z" />
    <glyph glyph-name="bracketleft" unicode="[" horiz-adv-x="338" 
d="M426 702l-26 -143h-85l-90 -516h85l-26 -143h-276l142 802h276z" />
    <glyph glyph-name="backslash" unicode="\" horiz-adv-x="348" 
d="M273 702l53 -802h-180l-54 802h181z" />
    <glyph glyph-name="bracketright" unicode="]" horiz-adv-x="338" 
d="M77 559l26 143h275l-142 -802h-275l26 143h84l90 516h-84z" />
    <glyph glyph-name="asciicircum" unicode="^" horiz-adv-x="542" 
d="M434 702l128 -316h-184l-44 144l-95 -144h-183l238 316h140z" />
    <glyph glyph-name="underscore" unicode="_" horiz-adv-x="483" 
d="M-29 -59h460l-24 -132h-460z" />
    <glyph glyph-name="grave" unicode="`" horiz-adv-x="384" 
d="M339 580h-126l-121 154q57 48 130 48q67 0 79 -51q6 -24 19.5 -75t18.5 -76z" />
    <glyph glyph-name="a" unicode="a" horiz-adv-x="610" 
d="M364 217l11 65q-2 29 -18.5 49.5t-43.5 20.5q-32 0 -58.5 -32t-26.5 -99q0 -38 15.5 -54.5t37.5 -16.5q53 0 83 67zM341 75q-22 -38 -59 -62.5t-82 -24.5q-82 0 -126 56t-44 162q0 132 69 220t164 88q99 0 135 -86l35 74h185l-68 -385q-12 -64 6 -109q-43 -20 -107 -20
q-103 0 -108 87z" />
    <glyph glyph-name="b" unicode="b" horiz-adv-x="612" 
d="M331 585l-29 -156q27 34 70.5 59.5t93.5 25.5q71 0 110.5 -52t39.5 -150q0 -153 -69 -238.5t-174 -85.5q-90 0 -132 86l-35 -74h-185l103 585q13 69 6 109q43 12 101 12q123 0 100 -121zM275 282l-10 -62q5 -27 20 -48.5t38 -21.5q38 0 63.5 31.5t25.5 100.5
q0 38 -15.5 54t-35.5 16q-45 0 -86 -70z" />
    <glyph glyph-name="c" unicode="c" horiz-adv-x="494" 
d="M36 211q0 131 87 217t223 86q74 0 125 -22.5t51 -72.5q0 -62 -52 -107q-43 51 -105 51q-56 0 -88 -35t-32 -101q0 -88 91 -88q73 0 120 53q16 -33 16 -78q0 -126 -193 -126q-115 0 -179 59.5t-64 163.5z" />
    <glyph glyph-name="d" unicode="d" horiz-adv-x="610" 
d="M364 217l11 65q-2 29 -18.5 49.5t-43.5 20.5q-32 0 -58.5 -32t-26.5 -99q0 -38 15.5 -54.5t37.5 -16.5q53 0 83 67zM398 428l28 157q13 69 6 109q43 12 101 12q63 0 87 -30t13 -91l-83 -468q-12 -64 6 -109q-43 -20 -107 -20q-103 0 -108 87q-22 -38 -59 -62.5t-82 -24.5
q-82 0 -126 56t-44 162q0 132 69 220t164 88q99 0 135 -86z" />
    <glyph glyph-name="e" unicode="e" horiz-adv-x="543" 
d="M334 131q99 0 142 50q22 -31 22 -73q0 -68 -56 -94t-152 -26q-111 0 -184.5 59.5t-73.5 168.5q0 130 94.5 214t217.5 84q99 0 152 -47t52 -110q0 -159 -190 -159q-80 0 -139 24q-5 -45 27.5 -68t87.5 -23zM343 377q-71 0 -106 -71q28 -10 82 -10q67 0 67 43q0 16 -11 27
t-32 11z" />
    <glyph glyph-name="f" unicode="f" horiz-adv-x="467" 
d="M57 -82l77 442l-95 -3l25 145h100q20 103 84 157.5t162 54.5q22 0 43.5 -3.5t44 -12t36.5 -25.5t14 -41q0 -46 -35 -87q-33 33 -75 33q-37 0 -58 -23t-27 -53h139l-25 -145l-134 4l-77 -443q-12 -68 -46 -98.5t-100 -30.5q-61 0 -97 20q32 37 44 109z" />
    <glyph glyph-name="g" unicode="g" horiz-adv-x="606" 
d="M365 226l10 60q-4 29 -20 49.5t-42 20.5q-29 0 -55 -31t-26 -97q0 -70 49 -70t84 68zM340 49l5 30q-25 -35 -63.5 -57t-82.5 -22q-80 0 -124 54.5t-44 153.5q0 135 69.5 220.5t170.5 85.5q90 0 125 -86l36 74h185l-73 -410q-28 -159 -115.5 -231t-236.5 -72
q-191 0 -191 112q0 25 14.5 54.5t38.5 49.5q18 -28 56.5 -46t86.5 -18q126 0 143 108z" />
    <glyph glyph-name="h" unicode="h" horiz-adv-x="618" 
d="M331 585l-29 -157q82 86 177 86q155 0 118 -206l-34 -191q-12 -64 6 -109q-43 -20 -107 -20q-127 0 -104 129l31 178q9 52 -24 52q-22 0 -47 -20t-41 -45l-50 -282h-206l103 585q13 69 6 109q43 12 101 12q63 0 87 -30t13 -91z" />
    <glyph glyph-name="i" unicode="i" horiz-adv-x="324" 
d="M259 722q110 0 110 -75q0 -58 -38.5 -85.5t-103.5 -27.5q-110 0 -110 75q0 113 142 113zM235 0l68 385q11 61 -12.5 91t-86.5 30q-58 0 -101 -12q7 -40 -6 -109l-68 -385h206z" />
    <glyph glyph-name="j" unicode="j" horiz-adv-x="324" 
d="M259 722q110 0 110 -75q0 -58 -38.5 -85.5t-103.5 -27.5q-110 0 -110 75q0 113 142 113zM15 -82l82 467q13 69 6 109q43 12 101 12q63 0 86.5 -30t12.5 -91l-82 -467q-12 -68 -46 -98.5t-100 -30.5q-68 0 -104 20q32 36 44 109z" />
    <glyph glyph-name="k" unicode="k" horiz-adv-x="647" 
d="M331 585l-28 -157q84 86 211 86q65 0 97 -30.5t31 -86.5q-1 -49 -32 -89.5t-71.5 -62.5t-81.5 -28q9 -33 37 -54t67 -21q26 0 52 13q16 -34 16 -71q0 -96 -111 -96q-84 0 -139 61t-77 145l21 104q60 -5 104.5 12t44.5 41q0 29 -45 29q-84 0 -149 -89l-51 -291h-206
l103 585q13 69 6 109q43 12 101 12q63 0 87 -30t13 -91z" />
    <glyph glyph-name="l" unicode="l" horiz-adv-x="306" 
d="M329 585l-104 -585h-204l103 585q13 69 6 109q43 12 100 12q63 0 86.5 -30t12.5 -91z" />
    <glyph glyph-name="m" unicode="m" horiz-adv-x="890" 
d="M875 336l-40 -219q-12 -64 6 -109q-43 -20 -107 -20q-125 0 -102 129l33 186q8 44 -22 44q-38 0 -76 -65l-50 -282h-202l53 303q8 44 -22 44q-33 0 -76 -65l-50 -282h-202l68 385q13 69 6 109q43 12 97 12q53 0 77 -19t26 -59q74 86 172 86q96 0 113 -87q82 87 182 87
q74 0 102.5 -46t13.5 -132z" />
    <glyph glyph-name="n" unicode="n" horiz-adv-x="614" 
d="M353 117l32 178q9 52 -25 52q-23 0 -47 -19t-40 -46l-50 -282h-205l68 385q13 69 6 109q43 12 97 12q53 0 77 -19t26 -59q31 34 77.5 60t95.5 26q163 0 125 -213l-32 -184q-11 -67 6 -109q-43 -20 -107 -20q-127 0 -104 129z" />
    <glyph glyph-name="o" unicode="o" horiz-adv-x="580" 
d="M239 213q0 -80 47 -80q41 0 62.5 46.5t21.5 113.5q0 76 -46 76q-41 0 -63 -46t-22 -110zM32 207q0 136 84.5 221.5t228.5 85.5q109 0 171 -60t62 -159q0 -140 -84 -223.5t-230 -83.5q-109 0 -170.5 60t-61.5 159z" />
    <glyph glyph-name="p" unicode="p" horiz-adv-x="606" 
d="M271 282l-11 -62q2 -28 18 -49t40 -21q33 0 58.5 34t25.5 97q0 71 -45 71q-51 0 -86 -70zM292 428q24 37 66.5 61.5t92.5 24.5q75 0 114.5 -50.5t39.5 -145.5q0 -144 -69 -237t-167 -93q-50 0 -84.5 25.5t-50.5 61.5l-49 -275h-203l104 585q13 69 6 109q43 12 97 12
q53 0 77 -19t26 -59z" />
    <glyph glyph-name="q" unicode="q" horiz-adv-x="606" 
d="M364 220l10 62q-5 27 -21 48.5t-40 21.5q-29 0 -55 -32t-26 -99q0 -71 49 -71q24 0 46 19.5t37 50.5zM397 428l36 74h185l-124 -702h-204l49 275q-22 -38 -61 -62.5t-89 -24.5q-76 0 -117.5 55.5t-41.5 156.5q0 136 70.5 225t173.5 89q89 0 123 -86z" />
    <glyph glyph-name="r" unicode="r" horiz-adv-x="480" 
d="M291 418q73 96 152 96q37 0 58.5 -20.5t21.5 -59.5q0 -78 -54 -141q-27 39 -82 39q-63 0 -115 -52l-49 -280h-205l68 385q13 69 6 109q43 12 97 12q100 0 102 -88z" />
    <glyph glyph-name="s" unicode="s" horiz-adv-x="487" 
d="M226 129q47 0 47 22q0 19 -61 36q-33 10 -56 19.5t-49.5 26.5t-40 42.5t-13.5 59.5q0 89 70 134t180 45q30 0 60.5 -4.5t60.5 -14.5t49 -28.5t19 -44.5q0 -48 -46 -101q-51 52 -154 52q-47 0 -47 -22q0 -9 13.5 -16t45.5 -17q40 -12 63.5 -22t49 -27t37.5 -41.5t12 -58.5
q0 -90 -67 -135.5t-193 -45.5q-198 0 -198 97q0 57 45 106q28 -27 76 -44.5t97 -17.5z" />
    <glyph glyph-name="t" unicode="t" horiz-adv-x="456" 
d="M39 357l25 145h90l75 190h154l-34 -190h142l-25 -146l-142 4l-29 -159q-10 -59 50 -59q42 0 76 21q9 -20 9 -48q0 -127 -163 -127q-95 0 -143 50.5t-28 162.5l28 159z" />
    <glyph glyph-name="u" unicode="u" horiz-adv-x="610" 
d="M358 75q-22 -35 -65 -61t-96 -26q-75 0 -111 53.5t-19 152.5l33 191q12 75 6 109q43 12 101 12q63 0 86.5 -30t12.5 -91l-32 -178q-9 -52 28 -52q47 0 78 63l50 284h206l-69 -385q-12 -64 6 -109q-43 -20 -107 -20q-103 0 -108 87z" />
    <glyph glyph-name="v" unicode="v" horiz-adv-x="566" 
d="M265 390l19 -191l139 303h214l-278 -502h-211l-77 386q-14 72 -36 108q39 12 105 12q63 0 91 -27.5t34 -88.5z" />
    <glyph glyph-name="w" unicode="w" horiz-adv-x="857" 
d="M254 390l7 -187l139 299h163l33 -299l117 299h209l-242 -502h-206l-27 269l-124 -269h-206l-49 386q-9 72 -30 108q41 12 98 12q60 0 88 -28t30 -88z" />
    <glyph glyph-name="x" unicode="x" horiz-adv-x="584" 
d="M313 71l-25 53q-15 -19 -50 -60.5t-52 -63.5h-221l242 258l-84 146q-41 73 -74 90q38 12 106 12q72 0 104.5 -17t51.5 -58l20 -42l91 113h218l-229 -246l91 -158q41 -72 76 -94q-69 -8 -108 -8q-69 0 -103.5 17.5t-53.5 57.5z" />
    <glyph glyph-name="y" unicode="y" horiz-adv-x="608" 
d="M346 49l8 41q-50 -85 -157 -85q-82 0 -121 54t-23 152l30 174q12 75 6 109q43 12 101 12q63 0 86.5 -30t12.5 -91l-29 -161q-10 -52 28 -52q47 0 77 56l49 274h206l-72 -410q-26 -148 -115.5 -225.5t-234.5 -77.5q-191 0 -191 112q0 25 14.5 54.5t38.5 49.5
q18 -28 56.5 -46t86.5 -18q122 0 143 108z" />
    <glyph glyph-name="z" unicode="z" horiz-adv-x="485" 
d="M53 407q0 47 29 71t100 24h338l-23 -134l-260 -225q37 0 112 1t111 1l-26 -145h-443l24 134l258 225l-115 -1q-46 0 -85 -16q-7 8 -13.5 27.5t-6.5 37.5z" />
    <glyph glyph-name="braceleft" unicode="{" horiz-adv-x="375" 
d="M38 230l26 142h21q34 0 46 46q6 21 18.5 64t17.5 64q21 78 73.5 117t150.5 39h72l-23 -133l-58 -8h1q-37 -5 -45 -43l-23 -95q-11 -42 -40 -75.5t-64 -46.5q31 -13 47.5 -46.5t12.5 -75.5l-9 -95q-3 -17 5 -29t24 -14h-1l55 -8l-24 -133h-72q-98 0 -136.5 39t-32.5 117
l9 128q4 46 -30 46h-21z" />
    <glyph glyph-name="bar" unicode="|" horiz-adv-x="284" 
d="M8 -100l142 802h174l-142 -802h-174z" />
    <glyph glyph-name="braceright" unicode="}" horiz-adv-x="375" 
d="M386 372l-26 -142h-21q-34 0 -46 -46q-30 -104 -36 -128q-21 -78 -73.5 -117t-150.5 -39h-72l24 133l57 8h-1q33 4 45 43l22 95q11 42 40 75.5t64 46.5q-31 13 -47.5 46.5t-12.5 75.5l10 95q5 39 -30 43h1l-54 8l24 133h72q98 0 136.5 -39t33.5 -117l-10 -128
q-4 -46 30 -46h21z" />
    <glyph glyph-name="asciitilde" unicode="~" horiz-adv-x="610" 
d="M273 462q40 0 91 -30q41 -24 68 -24q43 0 97 70l97 -66q-41 -73 -102.5 -124t-122.5 -51q-41 0 -92 30q-41 24 -66 24q-44 0 -98 -70l-97 66q40 73 102 124t123 51z" />
    <glyph glyph-name="uni00A0" unicode="&#xa0;" horiz-adv-x="240" 
 />
    <glyph glyph-name="exclamdown" unicode="&#xa1;" horiz-adv-x="318" 
d="M-18 -200l108 454h170l-52 -454h-226zM317 428q0 -57 -33.5 -92.5t-97.5 -35.5q-48 0 -74 23.5t-26 62.5q0 57 34 92.5t98 35.5q48 0 73.5 -23.5t25.5 -62.5z" />
    <glyph glyph-name="cent" unicode="&#xa2;" 
d="M298 -100l16 88q-104 4 -159.5 63t-55.5 160q0 127 83.5 212t223.5 91l16 87h105l-17 -95q32 -8 54 -29t22 -55q0 -49 -51 -110q-21 34 -52 41l-36 -205q41 9 72 44q16 -33 16 -77q0 -96 -115 -119l-17 -96h-105zM308 222q0 -58 34 -73l36 204q-70 -30 -70 -131z" />
    <glyph glyph-name="sterling" unicode="&#xa3;" 
d="M69 288l18 103h69q-17 53 -17 93q0 102 85 166t219 64q53 0 99 -9.5t82 -38t36 -72.5t-62 -114q-52 51 -146 51q-108 0 -108 -91q0 -31 6 -49h155l-18 -103l-115 -2q-13 -57 -92 -115h316l-30 -171h-549l28 160q52 10 90.5 40t45.5 69q0 2 1 9t2 10h-115z" />
    <glyph glyph-name="currency" unicode="&#xa4;" horiz-adv-x="521" 
d="M233 285q0 -51 38 -51q28 0 46 23.5t18 57.5q0 23 -11 37t-29 14q-27 0 -44.5 -23.5t-17.5 -57.5zM77 284q0 36 35 94l-31 39l131 116l35 -46q33 14 72 14q38 0 68 -14l51 46l90 -116l-45 -39q8 -30 8 -62q0 -39 -36 -94l32 -39l-132 -116l-34 46q-35 -14 -73 -14
q-39 0 -67 14l-52 -46l-89 116l44 39q-7 26 -7 62z" />
    <glyph glyph-name="yen" unicode="&#xa5;" 
d="M66 206l18 103h142l-20 58h-112l18 103h49l-79 232h126q53 0 80 -17.5t36 -63.5l36 -193l160 274h226l-163 -232h51l-18 -103h-114l-40 -58h143l-18 -103h-152l-37 -206h-217l37 206h-152z" />
    <glyph glyph-name="brokenbar" unicode="&#xa6;" horiz-adv-x="302" 
d="M342 702l-60 -341h-192l60 341h192zM260 241l-60 -341h-192l60 341h192z" />
    <glyph glyph-name="section" unicode="&#xa7;" 
d="M260 -44q51 0 51 30q0 14 -17.5 25t-64.5 31q-19 8 -40 23t-43.5 38t-37 56t-14.5 70q0 56 34 99.5t82 65.5q-44 44 -44 116q0 101 66.5 152.5t175.5 51.5q53 0 100.5 -9.5t81 -31.5t33.5 -53q0 -57 -48 -112q-75 39 -156 39q-50 0 -50 -22q0 -17 14.5 -28t54.5 -29
q64 -29 106.5 -78.5t42.5 -115.5q0 -87 -115 -158h-1q45 -39 45 -112q0 -89 -71.5 -152t-195.5 -63q-35 0 -66.5 4t-66 14.5t-55 33.5t-20.5 56q0 18 12 51t33 63q56 -55 174 -55zM283 258q0 -36 63 -74q52 40 52 68q0 31 -69 71q-46 -30 -46 -65z" />
    <glyph glyph-name="dieresis" unicode="&#xa8;" horiz-adv-x="384" 
d="M163 732q43 0 67 -20t24 -56q0 -53 -30.5 -82.5t-86.5 -29.5q-44 0 -68 19.5t-24 56.5q0 53 30.5 82.5t87.5 29.5zM413 732q44 0 68 -19.5t24 -56.5q0 -53 -30.5 -82.5t-87.5 -29.5q-43 0 -67 20t-24 56q0 53 30.5 82.5t86.5 29.5z" />
    <glyph glyph-name="copyright" unicode="&#xa9;" horiz-adv-x="798" 
d="M374 -9q-148 0 -224 81t-76 207q0 82 25 156.5t73.5 137t130 99.5t186.5 37q148 0 224 -81t76 -207q0 -82 -24.5 -156.5t-73 -137t-130.5 -99.5t-187 -37zM378 48q88 0 156 32.5t107 86.5t58 116.5t19 130.5q0 105 -56.5 171.5t-176.5 66.5q-88 0 -156 -32.5t-107 -86.5
t-58 -116.5t-19 -130.5q0 -105 56.5 -171.5t176.5 -66.5zM260 315q0 101 60 164.5t159 63.5q56 0 90 -18q19 -10 19 -34q0 -26 -25 -69q-40 28 -87 28q-57 0 -84 -32.5t-27 -85.5q0 -77 81 -77q47 0 99 31q5 -15 5 -38q0 -48 -35 -65q-42 -21 -101 -21q-74 0 -114 41
t-40 112z" />
    <glyph glyph-name="ordfeminine" unicode="&#xaa;" horiz-adv-x="343" 
d="M371 397h-111q-17 9 -24 24q-29 -29 -79 -29q-33 0 -56.5 19.5t-23.5 59.5q0 120 169 120h12q1 11 -6 17.5t-21 6.5q-55 0 -94 -28q-17 20 -17 50q0 20 14 34.5t36.5 21.5t44.5 10t45 3q65 0 98.5 -30.5t22.5 -93.5l-17 -100q-9 -49 7 -85zM213 485q19 0 29 16l4 24h-13
q-13 0 -22 -8t-9 -20t11 -12z" />
    <glyph glyph-name="guillemotleft" unicode="&#xab;" horiz-adv-x="749" 
d="M33 258l207 224h211l-207 -224l127 -225h-211zM349 258l207 224h211l-208 -224l128 -225h-211z" />
    <glyph glyph-name="logicalnot" unicode="&#xac;" horiz-adv-x="563" 
d="M81 476h480l-56 -321h-205l25 145h-275z" />
    <glyph glyph-name="uni00AD" unicode="&#xad;" horiz-adv-x="308" 
d="M314 198h-312l33 184h312z" />
    <glyph glyph-name="registered" unicode="&#xae;" horiz-adv-x="487" 
d="M115 494q0 85 57.5 149t161.5 64q80 0 122 -43.5t42 -107.5q0 -85 -57.5 -149t-161.5 -64q-80 0 -122 43.5t-42 107.5zM450 556q0 51 -28.5 82t-89.5 31q-86 0 -127.5 -51t-41.5 -123q0 -51 28.5 -82.5t89.5 -31.5q87 0 128 51t41 124zM299 495h-9l-13 -75h-67l35 204h83
q72 0 72 -55q0 -20 -12.5 -37.5t-31.5 -25.5l30 -86h-38q-33 0 -39 25zM304 574l-6 -32h23q15 0 15 20q0 12 -10 12h-22z" />
    <glyph glyph-name="macron" unicode="&#xaf;" horiz-adv-x="384" 
d="M73 580l21 118h384l-21 -118h-384z" />
    <glyph glyph-name="degree" unicode="&#xb0;" horiz-adv-x="346" 
d="M192 567q0 -22 11.5 -36.5t30.5 -14.5q27 0 46 22t19 53q0 22 -11.5 36.5t-30.5 14.5q-27 0 -46 -22t-19 -53zM106 556q0 68 45 113.5t115 45.5q54 0 86.5 -31.5t32.5 -81.5q0 -68 -45.5 -113.5t-114.5 -45.5q-54 0 -86.5 31.5t-32.5 81.5z" />
    <glyph glyph-name="plusminus" unicode="&#xb1;" 
d="M239 175l32 182h-179l28 157h179l32 181h164l-32 -181h178l-28 -157h-178l-32 -182h-164zM49 112h521l-20 -112h-521z" />
    <glyph glyph-name="twosuperior" unicode="&#xb2;" horiz-adv-x="278" 
d="M296 400h-236l13 77q59 26 103.5 60.5t44.5 65.5q0 24 -28 24q-41 0 -71 -25q-15 21 -15 46q0 19 11.5 33t30.5 20.5t37.5 9.5t38.5 3q52 0 78 -23t26 -62q0 -74 -109 -142q15 0 45.5 0.5t45.5 0.5z" />
    <glyph glyph-name="threesuperior" unicode="&#xb3;" horiz-adv-x="283" 
d="M180 482q38 0 38 28q0 22 -28 22h-48l-10 45l73 46q-17 0 -51.5 -0.5t-50.5 -0.5l16 87h223l-14 -78l-68 -40h-1q63 -15 63 -77q0 -57 -42 -88t-108 -31q-104 0 -104 57q0 32 28 63q23 -33 84 -33z" />
    <glyph glyph-name="acute" unicode="&#xb4;" horiz-adv-x="384" 
d="M317 580h-126l90 151q32 51 97 51q74 0 114 -48z" />
    <glyph glyph-name="mu" unicode="&#xb5;" horiz-adv-x="612" 
d="M342 75q-45 -68 -121 -83l-34 -192h-205l103 585q12 75 6 109q43 12 101 12q63 0 86.5 -30t12.5 -91l-32 -178q-9 -52 28 -52q46 0 77 62l51 285h205l-69 -385q-12 -64 6 -109q-43 -20 -107 -20q-103 0 -108 87z" />
    <glyph glyph-name="paragraph" unicode="&#xb6;" horiz-adv-x="581" 
d="M535 587l-100 -567q-22 -121 -83 -176t-171 -55q-58 0 -97 20t-39 65q0 51 41 105q26 -31 78 -31q34 0 47.5 18t19.5 51l46 260q-188 8 -188 178q0 275 289 275h265l-25 -143h-83zM284 587l-31 -175h52l31 175h-52z" />
    <glyph glyph-name="periodcentered" unicode="&#xb7;" horiz-adv-x="306" 
d="M55 250q0 57 34.5 92.5t99.5 35.5q48 0 72.5 -23t24.5 -63q0 -57 -34.5 -92.5t-99.5 -35.5q-48 0 -72.5 23t-24.5 63z" />
    <glyph glyph-name="cedilla" unicode="&#xb8;" horiz-adv-x="384" 
d="M115 -46h117l-71 -151q-24 -51 -93 -51q-68 0 -95 41z" />
    <glyph glyph-name="onesuperior" unicode="&#xb9;" horiz-adv-x="270" 
d="M166 594l-45 -24l-22 63l103 77h90l-39 -224q10 0 31 0.5t30 0.5l-16 -87h-229l16 87l62 -1z" />
    <glyph glyph-name="ordmasculine" unicode="&#xba;" horiz-adv-x="366" 
d="M220 525q0 -39 18 -39q19 0 30.5 26.5t11.5 60.5q0 38 -19 38q-18 0 -29.5 -25.5t-11.5 -60.5zM85 521q0 82 50 133.5t137 51.5q67 0 104.5 -35t37.5 -97q0 -80 -50.5 -132t-136.5 -52q-67 0 -104.5 35t-37.5 96z" />
    <glyph glyph-name="guillemotright" unicode="&#xbb;" horiz-adv-x="749" 
d="M618 482l129 -224l-208 -225h-210l207 225l-128 224h210zM303 482l128 -224l-207 -225h-211l207 225l-128 224h211z" />
    <glyph glyph-name="onequarter" unicode="&#xbc;" horiz-adv-x="802" 
d="M599 702l-471 -702h140l471 702h-140zM195 595l-45 -25l-22 63l102 77h90l-39 -224q10 0 31 0.5t30 0.5l-16 -87h-229l16 87l63 -1zM721 55h-40l-10 -55h-103l10 55h-130l13 74l171 181h95l-31 -173h40zM593 137l5 33q-21 -21 -31 -33h26z" />
    <glyph glyph-name="onehalf" unicode="&#xbd;" horiz-adv-x="802" 
d="M599 702l-471 -702h140l471 702h-140zM195 595l-45 -25l-22 63l102 77h90l-39 -224q10 0 31 0.5t30 0.5l-16 -87h-229l16 87l63 -1zM709 0h-236l13 77q59 26 103.5 60.5t44.5 65.5q0 24 -28 24q-41 0 -71 -25q-15 21 -15 46q0 19 11.5 33t30.5 20.5t37.5 9.5t38.5 3
q52 0 78 -23t26 -62q0 -74 -109 -142q15 0 45.5 0.5t45.5 0.5z" />
    <glyph glyph-name="threequarters" unicode="&#xbe;" horiz-adv-x="802" 
d="M598 702l-470 -702h140l470 702h-140zM720 55h-40l-9 -55h-103l9 55h-130l14 74l170 181h95l-31 -173h40zM592 137l6 33l-32 -33h26zM209 482q38 0 38 28q0 22 -28 22h-48l-10 45l73 46q-17 0 -51.5 -0.5t-50.5 -0.5l16 87h223l-14 -78l-68 -40h-1q63 -15 63 -77
q0 -57 -42 -88t-108 -31q-104 0 -104 57q0 32 28 63q23 -33 84 -33z" />
    <glyph glyph-name="questiondown" unicode="&#xbf;" horiz-adv-x="551" 
d="M232 -212q-122 0 -184.5 44t-62.5 120q0 43 18.5 78t46 60.5t56.5 48.5t54 53t34 62h186q-8 -33 -36 -68t-57 -58.5t-52 -54.5t-23 -60q0 -42 69 -42q109 0 179 46q22 -34 22 -85q0 -42 -22.5 -71.5t-60.5 -44.5t-79 -21.5t-88 -6.5zM428 428q0 -57 -33.5 -92.5
t-97.5 -35.5q-48 0 -74 23.5t-26 62.5q0 57 34 92.5t98 35.5q48 0 73.5 -23.5t25.5 -62.5z" />
    <glyph glyph-name="Agrave" unicode="&#xc0;" horiz-adv-x="732" 
d="M422 463l28 -188h-124zM467 704h-113l-401 -704h226l55 110h248l18 -110h219l-131 604q-11 50 -38.5 75t-82.5 25zM549 780h-126l-121 154q57 48 130 48q67 0 79 -51q5 -24 19 -75t19 -76z" />
    <glyph glyph-name="Aacute" unicode="&#xc1;" horiz-adv-x="732" 
d="M422 463l28 -188h-124zM467 704h-113l-401 -704h226l55 110h248l18 -110h219l-131 604q-11 50 -38.5 75t-82.5 25zM512 780h-126l90 151q32 51 97 51q74 0 114 -48z" />
    <glyph glyph-name="Acircumflex" unicode="&#xc2;" horiz-adv-x="732" 
d="M422 463l28 -188h-124zM467 704h-113l-401 -704h226l55 110h248l18 -110h219l-131 604q-11 50 -38.5 75t-82.5 25zM443 965h75q33 0 47.5 -9t28.5 -32l86 -144h-131l-60 70l-86 -70h-141z" />
    <glyph glyph-name="Atilde" unicode="&#xc3;" horiz-adv-x="732" 
d="M422 463l28 -188h-124zM467 704h-113l-401 -704h226l55 110h248l18 -110h219l-131 604q-11 50 -38.5 75t-82.5 25zM419 952q34 0 76 -26.5t62 -26.5q16 0 29 14t18 33h112q-15 -84 -66.5 -128t-117.5 -44q-29 0 -72.5 26.5t-65.5 26.5q-31 0 -47 -47h-112q15 84 66.5 128
t117.5 44z" />
    <glyph glyph-name="Adieresis" unicode="&#xc4;" horiz-adv-x="732" 
d="M422 463l28 -188h-124zM467 704h-113l-401 -704h226l55 110h248l18 -110h219l-131 604q-11 50 -38.5 75t-82.5 25zM372 932q43 0 67 -20t24 -56q0 -53 -30.5 -82.5t-86.5 -29.5q-44 0 -68 19.5t-24 56.5q0 53 30.5 82.5t87.5 29.5zM622 932q44 0 68 -19.5t24 -56.5
q0 -53 -30.5 -82.5t-87.5 -29.5q-43 0 -67 20t-24 56q0 53 30.5 82.5t86.5 29.5z" />
    <glyph glyph-name="Aring" unicode="&#xc5;" horiz-adv-x="732" 
d="M422 463l28 -188h-124zM467 704h-113l-401 -704h226l55 110h248l18 -110h219l-131 604q-11 50 -38.5 75t-82.5 25zM477 868q0 -26 23 -26q14 0 23.5 12t9.5 29q0 27 -22 27q-15 0 -24.5 -12t-9.5 -30zM382 856q0 61 41 98t103 37q47 0 75 -25.5t28 -69.5q0 -61 -41 -98
t-103 -37q-47 0 -75 25.5t-28 69.5z" />
    <glyph glyph-name="AE" unicode="&#xc6;" horiz-adv-x="951" 
d="M781 278h-125l-17 -99h278l-32 -179h-491l20 111h-162l-91 -111h-211l575 702h483l-31 -179h-277l-16 -84h246l-9 -51q-10 -59 -42.5 -84.5t-97.5 -25.5zM462 385l-99 -139h75z" />
    <glyph glyph-name="Ccedilla" unicode="&#xc7;" horiz-adv-x="619" 
d="M441 531q-47 0 -81.5 -20.5t-53 -55t-27 -73t-8.5 -82.5q0 -129 104 -129q108 0 197 75q30 -47 30 -98q0 -80 -72.5 -120t-187.5 -40q-148 0 -221 78t-73 224q0 184 106.5 304t301.5 120q89 0 153 -32t64 -97q0 -28 -20 -64.5t-48 -60.5q-54 71 -164 71zM292 -46h117
l-71 -151q-24 -51 -93 -51q-68 0 -95 41z" />
    <glyph glyph-name="Egrave" unicode="&#xc8;" horiz-adv-x="588" 
d="M283 278h145q63 0 95 25t44 85l10 51h-265l15 84h297l31 179h-510l-124 -702h511l32 179h-298zM497 780h-126l-121 154q57 48 130 48q67 0 79 -51q5 -24 18.5 -75t19.5 -76z" />
    <glyph glyph-name="Eacute" unicode="&#xc9;" horiz-adv-x="588" 
d="M283 278h145q63 0 95 25t44 85l10 51h-265l15 84h297l31 179h-510l-124 -702h511l32 179h-298zM460 780h-126l90 151q32 51 97 51q74 0 114 -48z" />
    <glyph glyph-name="Ecircumflex" unicode="&#xca;" horiz-adv-x="588" 
d="M283 278h145q63 0 95 25t44 85l10 51h-265l15 84h297l31 179h-510l-124 -702h511l32 179h-298zM386 965h75q33 0 47.5 -9t28.5 -32l86 -144h-131l-60 70l-86 -70h-141z" />
    <glyph glyph-name="Edieresis" unicode="&#xcb;" horiz-adv-x="588" 
d="M283 278h145q63 0 95 25t44 85l10 51h-265l15 84h297l31 179h-510l-124 -702h511l32 179h-298zM297 932q43 0 67 -20t24 -56q0 -53 -30.5 -82.5t-86.5 -29.5q-44 0 -68 19.5t-24 56.5q0 53 30.5 82.5t87.5 29.5zM547 932q44 0 68 -19.5t24 -56.5q0 -53 -30.5 -82.5
t-87.5 -29.5q-43 0 -67 20t-24 56q0 53 30.5 82.5t86.5 29.5z" />
    <glyph glyph-name="Igrave" unicode="&#xcc;" horiz-adv-x="321" 
d="M238 0l104 585q11 61 -13 91t-91 30q-63 0 -106 -12q7 -40 -6 -109l-103 -585h215zM344 780h-126l-121 154q57 48 130 48q67 0 79 -51q5 -24 18.5 -75t19.5 -76z" />
    <glyph glyph-name="Iacute" unicode="&#xcd;" horiz-adv-x="321" 
d="M238 0l104 585q11 61 -13 91t-91 30q-63 0 -106 -12q7 -40 -6 -109l-103 -585h215zM286 780h-126l90 151q32 51 97 51q74 0 114 -48z" />
    <glyph glyph-name="Icircumflex" unicode="&#xce;" horiz-adv-x="321" 
d="M238 0l104 585q11 61 -13 91t-91 30q-63 0 -106 -12q7 -40 -6 -109l-103 -585h215zM223 965h75q33 0 47.5 -9t28.5 -32l86 -144h-131l-60 70l-86 -70h-141z" />
    <glyph glyph-name="Idieresis" unicode="&#xcf;" horiz-adv-x="321" 
d="M238 0l104 585q11 61 -13 91t-91 30q-63 0 -106 -12q7 -40 -6 -109l-103 -585h215zM154 932q43 0 67 -20t24 -56q0 -53 -30.5 -82.5t-86.5 -29.5q-44 0 -68 19.5t-24 56.5q0 53 30.5 82.5t87.5 29.5zM404 932q44 0 68 -19.5t24 -56.5q0 -53 -30.5 -82.5t-87.5 -29.5
q-43 0 -67 20t-24 56q0 53 30.5 82.5t86.5 29.5z" />
    <glyph glyph-name="Eth" unicode="&#xd0;" horiz-adv-x="713" 
d="M326 0h-295l49 278h-63l18 103h63l57 321h266q309 0 309 -288q0 -87 -23.5 -160.5t-71.5 -131t-127 -90t-182 -32.5zM278 181h80q74 0 114 63.5t40 151.5q0 59 -26.5 92t-78.5 33h-69l-25 -140h121l-18 -103h-121z" />
    <glyph glyph-name="Ntilde" unicode="&#xd1;" horiz-adv-x="749" 
d="M667 0l124 702h-214l-63 -359l-164 359h-205l-124 -702h215l64 358l163 -358h204zM448 952q34 0 76 -26.5t62 -26.5q16 0 29 14t18 33h112q-15 -84 -66.5 -128t-117.5 -44q-29 0 -72.5 26.5t-65.5 26.5q-31 0 -47 -47h-112q15 84 66.5 128t117.5 44z" />
    <glyph glyph-name="Ograve" unicode="&#xd2;" horiz-adv-x="732" 
d="M48 281q0 -136 75.5 -214.5t218.5 -78.5q101 0 179.5 34t127.5 93t74.5 136.5t25.5 167.5q0 137 -75.5 216t-218.5 79q-195 0 -301 -121t-106 -312zM525 403q0 -95 -40 -163.5t-119 -68.5q-48 0 -71.5 34.5t-23.5 93.5q0 95 39.5 163.5t119.5 68.5q48 0 71.5 -34.5
t23.5 -93.5zM609 780h-126l-121 154q57 48 130 48q67 0 79 -51q6 -24 19.5 -75t18.5 -76z" />
    <glyph glyph-name="Oacute" unicode="&#xd3;" horiz-adv-x="732" 
d="M48 281q0 -136 75.5 -214.5t218.5 -78.5q101 0 179.5 34t127.5 93t74.5 136.5t25.5 167.5q0 137 -75.5 216t-218.5 79q-195 0 -301 -121t-106 -312zM525 403q0 -95 -40 -163.5t-119 -68.5q-48 0 -71.5 34.5t-23.5 93.5q0 95 39.5 163.5t119.5 68.5q48 0 71.5 -34.5
t23.5 -93.5zM462 780h-126l90 151q32 51 97 51q74 0 114 -48z" />
    <glyph glyph-name="Ocircumflex" unicode="&#xd4;" horiz-adv-x="732" 
d="M48 281q0 -136 75.5 -214.5t218.5 -78.5q101 0 179.5 34t127.5 93t74.5 136.5t25.5 167.5q0 137 -75.5 216t-218.5 79q-195 0 -301 -121t-106 -312zM525 403q0 -95 -40 -163.5t-119 -68.5q-48 0 -71.5 34.5t-23.5 93.5q0 95 39.5 163.5t119.5 68.5q48 0 71.5 -34.5
t23.5 -93.5zM458 965h75q33 0 47.5 -9t28.5 -32l86 -144h-131l-60 70l-86 -70h-141z" />
    <glyph glyph-name="Otilde" unicode="&#xd5;" horiz-adv-x="732" 
d="M48 281q0 -136 75.5 -214.5t218.5 -78.5q101 0 179.5 34t127.5 93t74.5 136.5t25.5 167.5q0 137 -75.5 216t-218.5 79q-195 0 -301 -121t-106 -312zM525 403q0 -95 -40 -163.5t-119 -68.5q-48 0 -71.5 34.5t-23.5 93.5q0 95 39.5 163.5t119.5 68.5q48 0 71.5 -34.5
t23.5 -93.5zM449 952q34 0 76 -26.5t62 -26.5q16 0 29 14t18 33h112q-15 -84 -66.5 -128t-117.5 -44q-29 0 -72.5 26.5t-65.5 26.5q-31 0 -47 -47h-112q15 84 66.5 128t117.5 44z" />
    <glyph glyph-name="Odieresis" unicode="&#xd6;" horiz-adv-x="732" 
d="M48 281q0 -136 75.5 -214.5t218.5 -78.5q101 0 179.5 34t127.5 93t74.5 136.5t25.5 167.5q0 137 -75.5 216t-218.5 79q-195 0 -301 -121t-106 -312zM525 403q0 -95 -40 -163.5t-119 -68.5q-48 0 -71.5 34.5t-23.5 93.5q0 95 39.5 163.5t119.5 68.5q48 0 71.5 -34.5
t23.5 -93.5zM374 932q43 0 67 -20t24 -56q0 -53 -30.5 -82.5t-86.5 -29.5q-44 0 -68 19.5t-24 56.5q0 53 30.5 82.5t87.5 29.5zM624 932q44 0 68 -19.5t24 -56.5q0 -53 -30.5 -82.5t-87.5 -29.5q-43 0 -67 20t-24 56q0 53 30.5 82.5t86.5 29.5z" />
    <glyph glyph-name="multiply" unicode="&#xd7;" 
d="M248 570l115 -155l171 155l97 -125l-174 -151l120 -151l-140 -126l-117 155l-171 -155l-97 126l174 151l-120 151z" />
    <glyph glyph-name="Oslash" unicode="&#xd8;" horiz-adv-x="732" 
d="M48 281q0 191 106 312t301 121q78 0 137 -25l59 73h150l-114 -143q62 -76 62 -200q0 -90 -25.5 -167.5t-74.5 -136.5t-127.5 -93t-179.5 -34q-79 0 -140 25l-58 -73h-150l114 143q-60 75 -60 198zM525 403v13l-192 -240q13 -5 33 -5q79 0 119 68.5t40 163.5zM430 531
q-80 0 -119.5 -68.5t-39.5 -163.5v-12l191 239q-15 5 -32 5z" />
    <glyph glyph-name="Ugrave" unicode="&#xd9;" horiz-adv-x="726" 
d="M342 304l50 281q21 121 -103 121q-63 0 -106 -12q7 -40 -6 -109l-52 -288q-56 -309 262 -309t372 309l72 405h-216l-71 -398q-12 -71 -41.5 -102t-83.5 -31q-53 0 -71 31t-6 102zM612 780h-126l-121 154q57 48 130 48q67 0 79 -51q5 -24 19 -75t19 -76z" />
    <glyph glyph-name="Uacute" unicode="&#xda;" horiz-adv-x="726" 
d="M342 304l50 281q21 121 -103 121q-63 0 -106 -12q7 -40 -6 -109l-52 -288q-56 -309 262 -309t372 309l72 405h-216l-71 -398q-12 -71 -41.5 -102t-83.5 -31q-53 0 -71 31t-6 102zM525 780h-126l90 151q32 51 97 51q74 0 114 -48z" />
    <glyph glyph-name="Ucircumflex" unicode="&#xdb;" horiz-adv-x="726" 
d="M342 304l50 281q21 121 -103 121q-63 0 -106 -12q7 -40 -6 -109l-52 -288q-56 -309 262 -309t372 309l72 405h-216l-71 -398q-12 -71 -41.5 -102t-83.5 -31q-53 0 -71 31t-6 102zM491 965h75q33 0 47.5 -9t28.5 -32l86 -144h-131l-60 70l-86 -70h-141z" />
    <glyph glyph-name="Udieresis" unicode="&#xdc;" horiz-adv-x="726" 
d="M342 304l50 281q21 121 -103 121q-63 0 -106 -12q7 -40 -6 -109l-52 -288q-56 -309 262 -309t372 309l72 405h-216l-71 -398q-12 -71 -41.5 -102t-83.5 -31q-53 0 -71 31t-6 102zM407 932q43 0 67 -20t24 -56q0 -53 -30.5 -82.5t-86.5 -29.5q-44 0 -68 19.5t-24 56.5
q0 53 30.5 82.5t87.5 29.5zM657 932q44 0 68 -19.5t24 -56.5q0 -53 -30.5 -82.5t-87.5 -29.5q-43 0 -67 20t-24 56q0 53 30.5 82.5t86.5 29.5z" />
    <glyph glyph-name="Yacute" unicode="&#xdd;" horiz-adv-x="687" 
d="M388 450l-38 135q-17 61 -54 91t-115 30q-73 0 -109 -12q21 -29 54 -109l128 -312h-1l-48 -273h216l48 273h-1l329 429h-242zM499 780h-126l90 151q32 51 97 51q74 0 114 -48z" />
    <glyph glyph-name="Thorn" unicode="&#xde;" horiz-adv-x="646" 
d="M21 0l124 702h107q102 0 91 -100h80q246 0 246 -191q0 -133 -75.5 -212t-231.5 -79h-103l-21 -120h-217zM311 423l-22 -124h98q33 0 49 22.5t16 53.5q0 48 -43 48h-98z" />
    <glyph glyph-name="germandbls" unicode="&#xdf;" horiz-adv-x="665" 
d="M396 -5q-145 0 -145 77q0 55 49 95q28 -27 75 -27q35 0 55 24.5t20 72.5q0 33 -16.5 51.5t-47.5 18.5h-28l22 123h28q66 0 66 77q0 29 -14.5 45.5t-40.5 16.5q-95 0 -123 -160l-73 -409h-204l73 409q10 58 34 109.5t64 97t103.5 72t142.5 26.5q119 0 177.5 -55.5
t58.5 -128.5q0 -59 -30 -100t-79 -60q41 -12 64.5 -49t23.5 -90q0 -102 -64 -169t-191 -67z" />
    <glyph glyph-name="agrave" unicode="&#xe0;" horiz-adv-x="610" 
d="M375 282l-11 -65q-30 -67 -83 -67q-22 0 -37.5 16.5t-15.5 54.5q0 67 26.5 99t58.5 32q27 0 43.5 -20.5t18.5 -49.5zM341 75q5 -87 108 -87q64 0 107 20q-18 45 -6 109l68 385h-185l-35 -74q-36 86 -135 86q-95 0 -164 -88t-69 -220q0 -106 44 -162t126 -56q45 0 82 24.5
t59 62.5zM428 580h-126l-121 154q57 48 130 48q67 0 79 -51q5 -24 18.5 -75t19.5 -76z" />
    <glyph glyph-name="aacute" unicode="&#xe1;" horiz-adv-x="610" 
d="M375 282l-11 -65q-30 -67 -83 -67q-22 0 -37.5 16.5t-15.5 54.5q0 67 26.5 99t58.5 32q27 0 43.5 -20.5t18.5 -49.5zM341 75q5 -87 108 -87q64 0 107 20q-18 45 -6 109l68 385h-185l-35 -74q-36 86 -135 86q-95 0 -164 -88t-69 -220q0 -106 44 -162t126 -56q45 0 82 24.5
t59 62.5zM381 580h-126l90 151q32 51 97 51q74 0 114 -48z" />
    <glyph glyph-name="acircumflex" unicode="&#xe2;" horiz-adv-x="610" 
d="M375 282l-11 -65q-30 -67 -83 -67q-22 0 -37.5 16.5t-15.5 54.5q0 67 26.5 99t58.5 32q27 0 43.5 -20.5t18.5 -49.5zM341 75q5 -87 108 -87q64 0 107 20q-18 45 -6 109l68 385h-185l-35 -74q-36 86 -135 86q-95 0 -164 -88t-69 -220q0 -106 44 -162t126 -56q45 0 82 24.5
t59 62.5zM367 765h75q33 0 47.5 -9t28.5 -32l86 -144h-131l-60 70l-86 -70h-141z" />
    <glyph glyph-name="atilde" unicode="&#xe3;" horiz-adv-x="610" 
d="M375 282l-11 -65q-30 -67 -83 -67q-22 0 -37.5 16.5t-15.5 54.5q0 67 26.5 99t58.5 32q27 0 43.5 -20.5t18.5 -49.5zM341 75q5 -87 108 -87q64 0 107 20q-18 45 -6 109l68 385h-185l-35 -74q-36 86 -135 86q-95 0 -164 -88t-69 -220q0 -106 44 -162t126 -56q45 0 82 24.5
t59 62.5zM349 752q34 0 76 -26.5t62 -26.5q16 0 29 14t18 33h112q-15 -84 -66.5 -128t-117.5 -44q-29 0 -72.5 26.5t-65.5 26.5q-31 0 -47 -47h-112q15 84 66.5 128t117.5 44z" />
    <glyph glyph-name="adieresis" unicode="&#xe4;" horiz-adv-x="610" 
d="M375 282l-11 -65q-30 -67 -83 -67q-22 0 -37.5 16.5t-15.5 54.5q0 67 26.5 99t58.5 32q27 0 43.5 -20.5t18.5 -49.5zM341 75q5 -87 108 -87q64 0 107 20q-18 45 -6 109l68 385h-185l-35 -74q-36 86 -135 86q-95 0 -164 -88t-69 -220q0 -106 44 -162t126 -56q45 0 82 24.5
t59 62.5zM273 732q43 0 67 -20t24 -56q0 -53 -30.5 -82.5t-86.5 -29.5q-44 0 -68 19.5t-24 56.5q0 53 30.5 82.5t87.5 29.5zM523 732q44 0 68 -19.5t24 -56.5q0 -53 -30.5 -82.5t-87.5 -29.5q-43 0 -67 20t-24 56q0 53 30.5 82.5t86.5 29.5z" />
    <glyph glyph-name="aring" unicode="&#xe5;" horiz-adv-x="610" 
d="M375 282l-11 -65q-30 -67 -83 -67q-22 0 -37.5 16.5t-15.5 54.5q0 67 26.5 99t58.5 32q27 0 43.5 -20.5t18.5 -49.5zM341 75q5 -87 108 -87q64 0 107 20q-18 45 -6 109l68 385h-185l-35 -74q-36 86 -135 86q-95 0 -164 -88t-69 -220q0 -106 44 -162t126 -56q45 0 82 24.5
t59 62.5zM367 668q0 -26 23 -26q14 0 23.5 12t9.5 29q0 27 -22 27q-15 0 -24.5 -12t-9.5 -30zM272 656q0 61 41 98t103 37q47 0 75 -25.5t28 -69.5q0 -61 -41 -98t-103 -37q-47 0 -75 25.5t-28 69.5z" />
    <glyph glyph-name="ae" unicode="&#xe6;" horiz-adv-x="805" 
d="M589 131q65 0 136 54q15 -27 15 -73q0 -65 -55 -94.5t-140 -29.5q-139 0 -186 86q-78 -84 -219 -84q-51 0 -90 34.5t-39 94.5q0 188 277 188h34q5 30 -9.5 49.5t-46.5 19.5q-81 0 -157 -42q-24 35 -24 68q0 40 35 66.5t82.5 36t105.5 9.5t92 -15.5t60 -47.5q68 63 173 63
q99 0 140.5 -66.5t23.5 -168.5l-13 -69h-283q2 -40 21.5 -59.5t66.5 -19.5zM599 377q-52 0 -80 -70h119q5 29 -3.5 49.5t-35.5 20.5zM232 130q39 0 67 37h-1l7 43h-35q-67 0 -67 -49q0 -31 29 -31z" />
    <glyph glyph-name="ccedilla" unicode="&#xe7;" horiz-adv-x="494" 
d="M36 211q0 131 87 217t223 86q74 0 125 -22.5t51 -72.5q0 -62 -52 -107q-43 51 -105 51q-56 0 -88 -35t-32 -101q0 -88 91 -88q73 0 120 53q16 -33 16 -78q0 -126 -193 -126q-115 0 -179 59.5t-64 163.5zM229 -46h117l-71 -151q-24 -51 -93 -51q-68 0 -95 41z" />
    <glyph glyph-name="egrave" unicode="&#xe8;" horiz-adv-x="543" 
d="M334 131q-55 0 -87.5 23t-27.5 68q59 -24 139 -24q190 0 190 159q1 63 -52 110t-152 47q-123 0 -217.5 -84t-94.5 -214q0 -109 73.5 -168.5t184.5 -59.5q96 0 152 26t56 94q0 42 -22 73q-43 -50 -142 -50zM343 377q21 0 32 -11t11 -27q0 -43 -67 -43q-54 0 -82 10
q35 71 106 71zM455 580h-126l-121 154q57 48 130 48q67 0 79 -51q5 -24 18.5 -75t19.5 -76z" />
    <glyph glyph-name="eacute" unicode="&#xe9;" horiz-adv-x="543" 
d="M334 131q-55 0 -87.5 23t-27.5 68q59 -24 139 -24q190 0 190 159q1 63 -52 110t-152 47q-123 0 -217.5 -84t-94.5 -214q0 -109 73.5 -168.5t184.5 -59.5q96 0 152 26t56 94q0 42 -22 73q-43 -50 -142 -50zM343 377q21 0 32 -11t11 -27q0 -43 -67 -43q-54 0 -82 10
q35 71 106 71zM387 580h-126l90 151q32 51 97 51q74 0 114 -48z" />
    <glyph glyph-name="ecircumflex" unicode="&#xea;" horiz-adv-x="543" 
d="M334 131q-55 0 -87.5 23t-27.5 68q59 -24 139 -24q190 0 190 159q1 63 -52 110t-152 47q-123 0 -217.5 -84t-94.5 -214q0 -109 73.5 -168.5t184.5 -59.5q96 0 152 26t56 94q0 42 -22 73q-43 -50 -142 -50zM343 377q21 0 32 -11t11 -27q0 -43 -67 -43q-54 0 -82 10
q35 71 106 71zM334 765h75q33 0 47.5 -9t28.5 -32l86 -144h-131l-60 70l-86 -70h-141z" />
    <glyph glyph-name="edieresis" unicode="&#xeb;" horiz-adv-x="543" 
d="M334 131q-55 0 -87.5 23t-27.5 68q59 -24 139 -24q190 0 190 159q1 63 -52 110t-152 47q-123 0 -217.5 -84t-94.5 -214q0 -109 73.5 -168.5t184.5 -59.5q96 0 152 26t56 94q0 42 -22 73q-43 -50 -142 -50zM343 377q21 0 32 -11t11 -27q0 -43 -67 -43q-54 0 -82 10
q35 71 106 71zM260 732q43 0 67 -20t24 -56q0 -53 -30.5 -82.5t-86.5 -29.5q-44 0 -68 19.5t-24 56.5q0 53 30.5 82.5t87.5 29.5zM510 732q44 0 68 -19.5t24 -56.5q0 -53 -30.5 -82.5t-87.5 -29.5q-43 0 -67 20t-24 56q0 53 30.5 82.5t86.5 29.5z" />
    <glyph glyph-name="igrave" unicode="&#xec;" horiz-adv-x="324" 
d="M235 0l68 385q11 61 -12.5 91t-86.5 30q-58 0 -101 -12q7 -40 -6 -109l-68 -385h206zM316 580h-126l-121 154q57 48 130 48q67 0 79 -51q6 -24 19 -75t19 -76z" />
    <glyph glyph-name="iacute" unicode="&#xed;" horiz-adv-x="324" 
d="M235 0l68 385q11 61 -12.5 91t-86.5 30q-58 0 -101 -12q7 -40 -6 -109l-68 -385h206zM268 580h-126l90 151q32 51 97 51q74 0 114 -48z" />
    <glyph glyph-name="icircumflex" unicode="&#xee;" horiz-adv-x="324" 
d="M235 0l68 385q11 61 -12.5 91t-86.5 30q-58 0 -101 -12q7 -40 -6 -109l-68 -385h206zM190 765h75q33 0 47.5 -9t28.5 -32l86 -144h-131l-60 70l-86 -70h-141z" />
    <glyph glyph-name="idieresis" unicode="&#xef;" horiz-adv-x="324" 
d="M235 0l68 385q11 61 -12.5 91t-86.5 30q-58 0 -101 -12q7 -40 -6 -109l-68 -385h206zM127 732q43 0 67 -20t24 -56q0 -53 -30.5 -82.5t-86.5 -29.5q-44 0 -68 19.5t-24 56.5q0 53 30.5 82.5t87.5 29.5zM377 732q44 0 68 -19.5t24 -56.5q0 -53 -30.5 -82.5t-87.5 -29.5
q-43 0 -67 20t-24 56q0 53 30.5 82.5t86.5 29.5z" />
    <glyph glyph-name="eth" unicode="&#xf0;" horiz-adv-x="618" 
d="M329 459l11 62l53 17h-1q-30 23 -72 23q-78 0 -128 -38q-16 25 -16 70q0 121 181 121q175 0 241 -108l78 27l-11 -62l-47 -16q16 -50 16 -109q0 -214 -99.5 -336t-276.5 -122q-100 0 -163.5 54.5t-63.5 149.5q0 115 72 183.5t180 68.5q43 0 84 -11.5t62 -27.5q4 44 -6 86
zM321 311q-37 0 -58.5 -26t-21.5 -71q0 -61 57 -61q35 0 67.5 34.5t42.5 87.5q-33 36 -87 36z" />
    <glyph glyph-name="ntilde" unicode="&#xf1;" horiz-adv-x="614" 
d="M353 117l32 178q9 52 -25 52q-23 0 -47 -19t-40 -46l-50 -282h-205l68 385q13 69 6 109q43 12 97 12q53 0 77 -19t26 -59q31 34 77.5 60t95.5 26q163 0 125 -213l-32 -184q-11 -67 6 -109q-43 -20 -107 -20q-127 0 -104 129zM335 752q34 0 76 -26.5t62 -26.5q16 0 29 14
t18 33h112q-15 -84 -66.5 -128t-117.5 -44q-29 0 -72.5 26.5t-65.5 26.5q-31 0 -47 -47h-112q15 84 66.5 128t117.5 44z" />
    <glyph glyph-name="ograve" unicode="&#xf2;" horiz-adv-x="580" 
d="M239 213q0 -80 47 -80q41 0 62.5 46.5t21.5 113.5q0 76 -46 76q-41 0 -63 -46t-22 -110zM32 207q0 136 84.5 221.5t228.5 85.5q109 0 171 -60t62 -159q0 -140 -84 -223.5t-230 -83.5q-109 0 -170.5 60t-61.5 159zM463 580h-126l-121 154q57 48 130 48q67 0 79 -51
q6 -24 19 -75t19 -76z" />
    <glyph glyph-name="oacute" unicode="&#xf3;" horiz-adv-x="580" 
d="M239 213q0 -80 47 -80q41 0 62.5 46.5t21.5 113.5q0 76 -46 76q-41 0 -63 -46t-22 -110zM32 207q0 136 84.5 221.5t228.5 85.5q109 0 171 -60t62 -159q0 -140 -84 -223.5t-230 -83.5q-109 0 -170.5 60t-61.5 159zM346 580h-126l90 151q32 51 97 51q74 0 114 -48z" />
    <glyph glyph-name="ocircumflex" unicode="&#xf4;" horiz-adv-x="580" 
d="M239 213q0 -80 47 -80q41 0 62.5 46.5t21.5 113.5q0 76 -46 76q-41 0 -63 -46t-22 -110zM32 207q0 136 84.5 221.5t228.5 85.5q109 0 171 -60t62 -159q0 -140 -84 -223.5t-230 -83.5q-109 0 -170.5 60t-61.5 159zM332 765h75q33 0 47.5 -9t28.5 -32l86 -144h-131l-60 70
l-86 -70h-141z" />
    <glyph glyph-name="otilde" unicode="&#xf5;" horiz-adv-x="580" 
d="M239 213q0 -80 47 -80q41 0 62.5 46.5t21.5 113.5q0 76 -46 76q-41 0 -63 -46t-22 -110zM32 207q0 136 84.5 221.5t228.5 85.5q109 0 171 -60t62 -159q0 -140 -84 -223.5t-230 -83.5q-109 0 -170.5 60t-61.5 159zM314 752q34 0 76 -26.5t62 -26.5q16 0 29 14t18 33h112
q-15 -84 -66.5 -128t-117.5 -44q-29 0 -72.5 26.5t-65.5 26.5q-31 0 -47 -47h-112q15 84 66.5 128t117.5 44z" />
    <glyph glyph-name="odieresis" unicode="&#xf6;" horiz-adv-x="580" 
d="M239 213q0 -80 47 -80q41 0 62.5 46.5t21.5 113.5q0 76 -46 76q-41 0 -63 -46t-22 -110zM32 207q0 136 84.5 221.5t228.5 85.5q109 0 171 -60t62 -159q0 -140 -84 -223.5t-230 -83.5q-109 0 -170.5 60t-61.5 159zM248 732q43 0 67 -20t24 -56q0 -53 -30.5 -82.5
t-86.5 -29.5q-44 0 -68 19.5t-24 56.5q0 53 30.5 82.5t87.5 29.5zM498 732q44 0 68 -19.5t24 -56.5q0 -53 -30.5 -82.5t-87.5 -29.5q-43 0 -67 20t-24 56q0 53 30.5 82.5t86.5 29.5z" />
    <glyph glyph-name="divide" unicode="&#xf7;" 
d="M588 236h-513l21 117h513zM280 474q0 48 27.5 77t80.5 29q41 0 63.5 -19.5t22.5 -52.5q0 -47 -28.5 -76.5t-81.5 -29.5q-40 0 -62 19.5t-22 52.5zM209 83q0 47 28.5 76t81.5 29q40 0 62 -19.5t22 -52.5q0 -48 -27 -77t-81 -29q-41 0 -63.5 20t-22.5 53z" />
    <glyph glyph-name="oslash" unicode="&#xf8;" horiz-adv-x="580" 
d="M32 207q0 136 84.5 221.5t228.5 85.5q49 0 96 -15l55 73h102l-86 -114q66 -60 66 -163q0 -140 -84 -223.5t-230 -83.5q-54 0 -96 15l-55 -73h-103l87 114q-65 59 -65 163zM286 133q37 0 58.5 38.5t24.5 97.5l-100 -133q8 -3 17 -3zM324 369q-38 0 -60 -39.5t-25 -96.5
l101 133q-8 3 -16 3z" />
    <glyph glyph-name="ugrave" unicode="&#xf9;" horiz-adv-x="610" 
d="M358 75q-22 -35 -65 -61t-96 -26q-75 0 -111 53.5t-19 152.5l33 191q12 75 6 109q43 12 101 12q63 0 86.5 -30t12.5 -91l-32 -178q-9 -52 28 -52q47 0 78 63l50 284h206l-69 -385q-12 -64 6 -109q-43 -20 -107 -20q-103 0 -108 87zM475 580h-126l-121 154q57 48 130 48
q67 0 79 -51q6 -24 19.5 -75t18.5 -76z" />
    <glyph glyph-name="uacute" unicode="&#xfa;" horiz-adv-x="610" 
d="M358 75q-22 -35 -65 -61t-96 -26q-75 0 -111 53.5t-19 152.5l33 191q12 75 6 109q43 12 101 12q63 0 86.5 -30t12.5 -91l-32 -178q-9 -52 28 -52q47 0 78 63l50 284h206l-69 -385q-12 -64 6 -109q-43 -20 -107 -20q-103 0 -108 87zM408 580h-126l90 151q32 51 97 51
q74 0 114 -48z" />
    <glyph glyph-name="ucircumflex" unicode="&#xfb;" horiz-adv-x="610" 
d="M358 75q-22 -35 -65 -61t-96 -26q-75 0 -111 53.5t-19 152.5l33 191q12 75 6 109q43 12 101 12q63 0 86.5 -30t12.5 -91l-32 -178q-9 -52 28 -52q47 0 78 63l50 284h206l-69 -385q-12 -64 6 -109q-43 -20 -107 -20q-103 0 -108 87zM354 765h75q33 0 47.5 -9t28.5 -32
l86 -144h-131l-60 70l-86 -70h-141z" />
    <glyph glyph-name="udieresis" unicode="&#xfc;" horiz-adv-x="610" 
d="M358 75q-22 -35 -65 -61t-96 -26q-75 0 -111 53.5t-19 152.5l33 191q12 75 6 109q43 12 101 12q63 0 86.5 -30t12.5 -91l-32 -178q-9 -52 28 -52q47 0 78 63l50 284h206l-69 -385q-12 -64 6 -109q-43 -20 -107 -20q-103 0 -108 87zM290 732q43 0 67 -20t24 -56
q0 -53 -30.5 -82.5t-86.5 -29.5q-44 0 -68 19.5t-24 56.5q0 53 30.5 82.5t87.5 29.5zM540 732q44 0 68 -19.5t24 -56.5q0 -53 -30.5 -82.5t-87.5 -29.5q-43 0 -67 20t-24 56q0 53 30.5 82.5t86.5 29.5z" />
    <glyph glyph-name="yacute" unicode="&#xfd;" horiz-adv-x="608" 
d="M346 49l8 41q-50 -85 -157 -85q-82 0 -121 54t-23 152l30 174q12 75 6 109q43 12 101 12q63 0 86.5 -30t12.5 -91l-29 -161q-10 -52 28 -52q47 0 77 56l49 274h206l-72 -410q-26 -148 -115.5 -225.5t-234.5 -77.5q-191 0 -191 112q0 25 14.5 54.5t38.5 49.5
q18 -28 56.5 -46t86.5 -18q122 0 143 108zM410 580h-126l90 151q32 51 97 51q74 0 114 -48z" />
    <glyph glyph-name="thorn" unicode="&#xfe;" horiz-adv-x="608" 
d="M272 282l-11 -62q2 -28 18 -49t40 -21q33 0 58.5 34t25.5 97q0 71 -45 71q-51 0 -86 -70zM330 585l-29 -157q22 38 61.5 62t89.5 24q75 0 114.5 -50.5t39.5 -145.5q0 -144 -69 -237t-167 -93q-50 0 -84.5 25.5t-50.5 61.5l-49 -275h-203l140 785q13 69 6 109
q43 12 101 12q63 0 87 -30t13 -91z" />
    <glyph glyph-name="ydieresis" unicode="&#xff;" horiz-adv-x="608" 
d="M346 49l8 41q-50 -85 -157 -85q-82 0 -121 54t-23 152l30 174q12 75 6 109q43 12 101 12q63 0 86.5 -30t12.5 -91l-29 -161q-10 -52 28 -52q47 0 77 56l49 274h206l-72 -410q-26 -148 -115.5 -225.5t-234.5 -77.5q-191 0 -191 112q0 25 14.5 54.5t38.5 49.5
q18 -28 56.5 -46t86.5 -18q122 0 143 108zM262 732q43 0 67 -20t24 -56q0 -53 -30.5 -82.5t-86.5 -29.5q-44 0 -68 19.5t-24 56.5q0 53 30.5 82.5t87.5 29.5zM512 732q44 0 68 -19.5t24 -56.5q0 -53 -30.5 -82.5t-87.5 -29.5q-43 0 -67 20t-24 56q0 53 30.5 82.5t86.5 29.5z
" />
    <glyph glyph-name="dotlessi" unicode="&#x131;" horiz-adv-x="324" 
d="M303 385l-68 -385h-206l68 385q13 69 6 109q43 12 101 12q63 0 86.5 -30t12.5 -91z" />
    <glyph glyph-name="Lslash" unicode="&#x141;" horiz-adv-x="583" 
d="M351 585l-14 -85l87 48l33 -91l-142 -79l-35 -195h289l-33 -183h-505l45 248l-50 -27l-33 91l104 58l38 215q13 69 6 109q43 12 105 12q66 0 90.5 -30t14.5 -91z" />
    <glyph glyph-name="lslash" unicode="&#x142;" horiz-adv-x="325" 
d="M338 585l-19 -107l43 24l33 -91l-97 -54l-64 -357h-203l42 235l-43 -24l-33 91l97 54l41 229q13 69 6 109q43 12 100 12q63 0 85.5 -30t11.5 -91z" />
    <glyph glyph-name="OE" unicode="&#x152;" horiz-adv-x="997" 
d="M492 246l37 209q-29 76 -103 76q-73 0 -114 -67.5t-41 -163.5q0 -60 22.5 -94.5t68.5 -34.5q79 0 131 75h-1zM449 0l8 49q-72 -61 -164 -61q-115 0 -180 77.5t-65 209.5q0 189 104.5 314t249.5 125q109 0 163 -61l8 49h490l-32 -179h-277l-14 -84h246l-10 -51
q-12 -59 -42 -84.5t-86 -25.5h-137l-18 -99h278l-31 -179h-491z" />
    <glyph glyph-name="oe" unicode="&#x153;" horiz-adv-x="856" 
d="M647 131q99 0 142 50q22 -31 22 -73q0 -68 -56 -94t-152 -26q-110 0 -181 56q-72 -56 -162 -56q-101 0 -164.5 61t-63.5 158q0 132 82.5 219.5t205.5 87.5q99 0 155 -56q82 56 182 56q99 0 152 -47t52 -110q0 -159 -190 -159q-80 0 -139 24q-5 -45 27.5 -68t87.5 -23z
M239 213q0 -80 47 -80q40 0 62 45q-3 18 -3 38q0 57 21 110q-9 43 -42 43q-41 0 -63 -46t-22 -110zM656 377q-71 0 -106 -71q28 -10 82 -10q67 0 67 43q0 16 -11 27t-32 11z" />
    <glyph glyph-name="Scaron" unicode="&#x160;" horiz-adv-x="618" 
d="M289 163q97 0 97 41q0 28 -91 58q-102 32 -156.5 84t-54.5 136q0 102 83 167t225 65q63 0 115.5 -10.5t91.5 -38t39 -69.5q0 -57 -59 -125q-32 33 -87 50.5t-116 17.5q-79 0 -79 -35q0 -16 20 -27.5t65 -28.5q52 -20 86 -36.5t67 -42.5t49 -61.5t16 -82.5
q0 -116 -87 -176.5t-236 -60.5q-73 0 -129.5 12.5t-93 43t-36.5 76.5q0 62 51 122q30 -35 89.5 -57t130.5 -22zM430 776h-75l-115 185h133l60 -70l86 70h139l-136 -144q-22 -23 -40.5 -32t-51.5 -9z" />
    <glyph glyph-name="scaron" unicode="&#x161;" horiz-adv-x="487" 
d="M226 129q47 0 47 22q0 19 -61 36q-33 10 -56 19.5t-49.5 26.5t-40 42.5t-13.5 59.5q0 89 70 134t180 45q30 0 60.5 -4.5t60.5 -14.5t49 -28.5t19 -44.5q0 -48 -46 -101q-51 52 -154 52q-47 0 -47 -22q0 -9 13.5 -16t45.5 -17q40 -12 63.5 -22t49 -27t37.5 -41.5t12 -58.5
q0 -90 -67 -135.5t-193 -45.5q-198 0 -198 97q0 57 45 106q28 -27 76 -44.5t97 -17.5zM335 576h-75l-115 185h133l60 -70l86 70h139l-136 -144q-22 -23 -40.5 -32t-51.5 -9z" />
    <glyph glyph-name="Ydieresis" unicode="&#x178;" horiz-adv-x="687" 
d="M388 450l-38 135q-17 61 -54 91t-115 30q-73 0 -109 -12q21 -29 54 -109l128 -312h-1l-48 -273h216l48 273h-1l329 429h-242zM331 932q43 0 67 -20t24 -56q0 -53 -30.5 -82.5t-86.5 -29.5q-44 0 -68 19.5t-24 56.5q0 53 30.5 82.5t87.5 29.5zM581 932q44 0 68 -19.5
t24 -56.5q0 -53 -30.5 -82.5t-87.5 -29.5q-43 0 -67 20t-24 56q0 53 30.5 82.5t86.5 29.5z" />
    <glyph glyph-name="Zcaron" unicode="&#x17d;" horiz-adv-x="604" 
d="M98 592q0 -56 23 -97q48 27 123 28l140 1l-367 -352l-30 -172h570l32 181l-310 -3l366 352l30 172h-439q-68 0 -103 -25.5t-35 -84.5zM433 776h-75l-115 185h133l60 -70l86 70h139l-136 -144q-22 -23 -40.5 -32t-51.5 -9z" />
    <glyph glyph-name="zcaron" unicode="&#x17e;" horiz-adv-x="485" 
d="M53 407q0 -18 6.5 -37.5t13.5 -27.5q39 16 85 16l115 1l-258 -225l-24 -134h443l26 145q-36 0 -111 -1t-112 -1l260 225l23 134h-338q-71 0 -100 -24t-29 -71zM329 576h-75l-115 185h133l60 -70l86 70h139l-136 -144q-22 -23 -40.5 -32t-51.5 -9z" />
    <glyph glyph-name="florin" unicode="&#x192;" 
d="M110 0l104 273l-100 -3l58 145l103 -3l32 90q40 108 109.5 160t180.5 52q55 0 90.5 -18t35.5 -50q0 -45 -56 -95q-37 23 -78 23q-66 0 -95 -72l-33 -90l140 3l-59 -145l-133 4l-111 -274q-39 -106 -110.5 -159t-184.5 -53q-47 0 -84.5 17.5t-37.5 56.5q0 58 47 93
q34 -27 87 -27q35 0 59.5 21t35.5 51z" />
    <glyph glyph-name="circumflex" unicode="&#x2c6;" horiz-adv-x="384" 
d="M237 765h75q33 0 47.5 -9t28.5 -32l86 -144h-131l-60 70l-86 -70h-141z" />
    <glyph glyph-name="caron" unicode="&#x2c7;" horiz-adv-x="384" 
d="M278 576h-75l-115 185h133l60 -70l86 70h139l-136 -144q-22 -23 -40.5 -32t-51.5 -9z" />
    <glyph glyph-name="breve" unicode="&#x2d8;" horiz-adv-x="384" 
d="M298 687q24 0 44 15t28 44h124q-17 -87 -78.5 -129.5t-137.5 -42.5t-123 42.5t-33 129.5h124q-2 -29 13 -44t39 -15z" />
    <glyph glyph-name="dotaccent" unicode="&#x2d9;" horiz-adv-x="384" 
d="M286 722q104 0 104 -75q0 -113 -130 -113q-104 0 -104 75q0 60 33 86.5t97 26.5z" />
    <glyph glyph-name="ring" unicode="&#x2da;" horiz-adv-x="384" 
d="M253 668q0 -26 23 -26q14 0 23.5 12t9.5 29q0 27 -22 27q-15 0 -24.5 -12t-9.5 -30zM158 656q0 61 41 98t103 37q47 0 75 -25.5t28 -69.5q0 -61 -41 -98t-103 -37q-47 0 -75 25.5t-28 69.5z" />
    <glyph glyph-name="ogonek" unicode="&#x2db;" horiz-adv-x="384" 
d="M94 3h116l86 -161q-43 -41 -108 -41q-70 0 -76 51z" />
    <glyph glyph-name="tilde" unicode="&#x2dc;" horiz-adv-x="384" 
d="M223 752q34 0 76 -26.5t62 -26.5q16 0 29 14t18 33h112q-15 -84 -66.5 -128t-117.5 -44q-29 0 -72.5 26.5t-65.5 26.5q-31 0 -47 -47h-112q15 84 66.5 128t117.5 44z" />
    <glyph glyph-name="hungarumlaut" unicode="&#x2dd;" horiz-adv-x="384" 
d="M217 580h-116l70 151q23 51 94 51q70 0 94 -41zM429 580h-117l71 151q25 51 94 51q70 0 94 -41z" />
    <glyph glyph-name="uni03A9" unicode="&#x3a9;" horiz-adv-x="756" 
d="M467 714q142 0 224 -72t82 -186q0 -96 -56 -172t-134 -126h126l-28 -158h-252l-54 82l11 62q74 49 125 120.5t51 154.5q0 64 -29.5 100t-86.5 36q-82 0 -128.5 -60.5t-46.5 -150.5q0 -58 25.5 -112t66.5 -88l-11 -62l-85 -82h-251l28 158h125q-41 37 -70.5 94t-29.5 121
q0 142 109 241.5t289 99.5z" />
    <glyph glyph-name="pi" unicode="&#x3c0;" horiz-adv-x="696" 
d="M358 162l31 173h-58l-85 -335h-181l84 335h-93l29 167h620l-29 -167h-105l-26 -145q-3 -17 3.5 -27.5t20.5 -10.5q28 0 57 18q10 -37 10 -65q0 -58 -42 -87.5t-99 -29.5q-82 0 -117 44.5t-20 129.5z" />
    <glyph glyph-name="endash" unicode="&#x2013;" horiz-adv-x="587" 
d="M70 360h515l-28 -157h-515z" />
    <glyph glyph-name="emdash" unicode="&#x2014;" horiz-adv-x="768" 
d="M70 360h696l-28 -157h-696z" />
    <glyph glyph-name="quoteleft" unicode="&#x2018;" horiz-adv-x="254" 
d="M214 702h121l-56 -166q-23 -67 -96 -67t-97 34z" />
    <glyph glyph-name="quoteright" unicode="&#x2019;" horiz-adv-x="254" 
d="M188 469h-122l55 166q23 67 97 67q71 0 98 -34z" />
    <glyph glyph-name="quotesinglbase" unicode="&#x201a;" horiz-adv-x="254" 
d="M74 -173h-122l55 166q23 67 97 67q71 0 98 -34z" />
    <glyph glyph-name="quotedblleft" unicode="&#x201c;" horiz-adv-x="467" 
d="M214 702h121l-56 -166q-23 -67 -96 -67t-97 34zM427 702h121l-56 -166q-23 -67 -96 -67q-72 0 -98 34z" />
    <glyph glyph-name="quotedblright" unicode="&#x201d;" horiz-adv-x="467" 
d="M401 469h-122l55 166q22 67 96 67q72 0 99 -34zM188 469h-122l55 166q23 67 97 67q71 0 98 -34z" />
    <glyph glyph-name="quotedblbase" unicode="&#x201e;" horiz-adv-x="467" 
d="M287 -173h-122l55 166q22 67 96 67q72 0 99 -34zM74 -173h-122l55 166q23 67 97 67q71 0 98 -34z" />
    <glyph glyph-name="dagger" unicode="&#x2020;" horiz-adv-x="578" 
d="M489 702l-38 -190l167 3l-29 -167l-166 3l-80 -451h-202l80 451l-168 -3l29 167l167 -3q29 189 29 190h211z" />
    <glyph glyph-name="daggerdbl" unicode="&#x2021;" horiz-adv-x="578" 
d="M347 -100h-211l38 190l-168 -3l30 167l170 -3l17 100l-170 -3l29 167l167 -3q29 189 29 190h211l-38 -190l167 3l-29 -167l-169 3l-17 -100l169 3l-30 -167l-166 3q0 -1 -29 -190z" />
    <glyph glyph-name="bullet" unicode="&#x2022;" horiz-adv-x="409" 
d="M65 276q0 190 187 190q70 0 106 -32.5t36 -89.5q0 -87 -45.5 -137.5t-142.5 -50.5q-70 0 -105.5 31.5t-35.5 88.5z" />
    <glyph glyph-name="ellipsis" unicode="&#x2026;" horiz-adv-x="918" 
d="M25 74q0 57 33.5 92.5t97.5 35.5q48 0 74 -23.5t26 -62.5q0 -57 -34 -92.5t-98 -35.5q-48 0 -73.5 23.5t-25.5 62.5zM331 74q0 57 33.5 92.5t97.5 35.5q48 0 74 -23.5t26 -62.5q0 -57 -34 -92.5t-98 -35.5q-48 0 -73.5 23.5t-25.5 62.5zM637 74q0 57 33.5 92.5t97.5 35.5
q48 0 74 -23.5t26 -62.5q0 -57 -34 -92.5t-98 -35.5q-48 0 -73.5 23.5t-25.5 62.5z" />
    <glyph glyph-name="perthousand" unicode="&#x2030;" horiz-adv-x="1079" 
d="M90 0l469 702h165l-469 -702h-165zM101 526q0 83 50 135.5t122 52.5q58 0 93.5 -35t35.5 -95q0 -83 -50.5 -135.5t-122.5 -52.5q-57 0 -92.5 35t-35.5 95zM277 585q0 39 -14 39q-13 0 -25 -32t-12 -68q0 -38 12 -38q14 0 26.5 32t12.5 67zM412 118q0 83 50 135.5
t122 52.5q58 0 93.5 -35t35.5 -95q0 -83 -50.5 -135.5t-122.5 -52.5q-57 0 -92.5 35t-35.5 95zM588 177q0 39 -14 39q-13 0 -25 -32t-12 -68q0 -38 12 -38q14 0 26.5 32t12.5 67zM741 118q0 83 50 135.5t122 52.5q58 0 93.5 -35t35.5 -95q0 -83 -50.5 -135.5t-122.5 -52.5
q-57 0 -92.5 35t-35.5 95zM917 177q0 39 -14 39q-13 0 -25 -32t-12 -68q0 -38 12 -38q14 0 26.5 32t12.5 67z" />
    <glyph glyph-name="guilsinglleft" unicode="&#x2039;" horiz-adv-x="433" 
d="M33 258l207 224h211l-207 -224l127 -225h-211z" />
    <glyph glyph-name="guilsinglright" unicode="&#x203a;" horiz-adv-x="433" 
d="M303 482l128 -224l-207 -225h-211l207 225l-128 224h211z" />
    <glyph glyph-name="fraction" unicode="&#x2044;" horiz-adv-x="507" 
d="M-32 0l470 702h165l-470 -702h-165z" />
    <glyph glyph-name="Euro" unicode="&#x20ac;" 
d="M52 374l47 101h59q48 111 138 175t212 64q88 0 135 -32t47 -92q0 -63 -95 -121q-19 34 -43.5 48t-64.5 14q-61 0 -99 -56h129l-47 -101h-122l-7 -44h113l-47 -101h-62q18 -58 83 -58q62 0 128 72q27 -21 44 -51.5t17 -59.5q0 -61 -61.5 -102t-169.5 -42q-123 0 -192 65.5
t-79 175.5h-88l47 101h46l7 44h-75z" />
    <glyph glyph-name="afii61289" unicode="&#x2113;" horiz-adv-x="507" 
d="M389 227l98 -73q-38 -82 -99 -124t-133 -42q-61 0 -99 26.5t-50 71.5l-49 -38l-62 121l122 95l39 221q20 109 80 169t138 60q62 0 98 -40t36 -113q0 -96 -65.5 -182.5t-182.5 -175.5q-3 -18 -3 -32q0 -42 31 -42q21 0 48 25.5t53 72.5zM312 500l-15 -87q65 94 65 136
q0 22 -14 22t-21.5 -17t-14.5 -54z" />
    <glyph glyph-name="trademark" unicode="&#x2122;" horiz-adv-x="684" 
d="M542 477h-51l-30 72q-1 -13 -3 -21l-23 -127h-88l54 301h77l58 -124l101 124h77l-54 -301h-86l23 127q3 15 5 24zM365 632l-83 1l-41 -232h-89l41 232q-13 0 -42 -0.5t-42 -0.5l13 70h256z" />
    <glyph glyph-name="Omega" unicode="&#x2126;" horiz-adv-x="756" 
d="M467 714q142 0 224 -72t82 -186q0 -96 -56 -172t-134 -126h126l-28 -158h-252l-54 82l11 62q74 49 125 120.5t51 154.5q0 64 -29.5 100t-86.5 36q-82 0 -128.5 -60.5t-46.5 -150.5q0 -58 25.5 -112t66.5 -88l-11 -62l-85 -82h-251l28 158h125q-41 37 -70.5 94t-29.5 121
q0 142 109 241.5t289 99.5z" />
    <glyph glyph-name="estimated" unicode="&#x212e;" horiz-adv-x="856" 
d="M820 335h-628q-5 0 -5 -4v-185q0 -19 8 -29q83 -96 240 -96q158 0 252 109h58q-55 -65 -136 -102t-175 -37q-165 0 -279.5 105t-114.5 253q0 150 112.5 254.5t277.5 104.5t277.5 -104.5t112.5 -254.5v-14zM673 365v186q0 24 -11 36q-93 91 -231 91q-141 0 -235 -97
q-9 -9 -9 -29v-187q0 -6 5 -6h476q5 0 5 6z" />
    <glyph glyph-name="partialdiff" unicode="&#x2202;" horiz-adv-x="672" 
d="M382 551q-86 0 -153 -50q0 1 -2.5 8.5t-4 17.5t-1.5 21q0 47 21 81t57 52t76.5 25.5t88.5 7.5q112 0 170.5 -59.5t58.5 -146.5q0 -62 -19.5 -132t-59 -139t-93 -124.5t-129.5 -90t-160 -34.5q-91 0 -150 48.5t-59 144.5q0 114 94.5 198.5t225.5 84.5q89 0 121 -39
q9 20 9 43q0 35 -22 59t-69 24zM345 319q-41 0 -72.5 -35.5t-31.5 -76.5q0 -46 47 -46q33 0 68.5 33.5t58.5 88.5h1q-24 36 -71 36z" />
    <glyph glyph-name="Delta" unicode="&#x2206;" horiz-adv-x="701" 
d="M-3 0l21 117l353 585h147l148 -585l-21 -117h-648zM254 177h195l-54 259z" />
    <glyph glyph-name="product" unicode="&#x220f;" horiz-adv-x="711" 
d="M333 533l-112 -633h-213l142 802h601l-142 -802h-213l112 633h-175z" />
    <glyph glyph-name="summation" unicode="&#x2211;" horiz-adv-x="611" 
d="M263 73l313 2l-30 -176h-567l25 146l250 264l-142 246l26 147h530l-31 -177l-277 2l125 -219z" />
    <glyph glyph-name="minus" unicode="&#x2212;" 
d="M584 216h-513l28 157h513z" />
    <glyph glyph-name="radical" unicode="&#x221a;" horiz-adv-x="733" 
d="M796 730l-359 -822h-194l-86 331q-6 -3 -34 -15.5t-43 -17.5l-28 160l255 106l56 -274l219 532h214z" />
    <glyph glyph-name="infinity" unicode="&#x221e;" horiz-adv-x="794" 
d="M223 296q0 -14 11 -23.5t26 -9.5q41 0 90 38q-38 40 -77 40q-19 0 -34.5 -13.5t-15.5 -31.5zM618 300q0 15 -11.5 24.5t-27.5 9.5q-41 0 -89 -38q15 -17 37.5 -28.5t38.5 -11.5q18 0 35 13t17 31zM559 115q-103 0 -160 80q-72 -53 -108 -67q-32 -13 -63 -13
q-66 0 -114 44t-48 113q0 90 67.5 150t145.5 60q60 0 96 -21.5t65 -58.5q80 80 175 80q67 0 113.5 -43.5t46.5 -113.5q0 -90 -68 -150t-148 -60z" />
    <glyph glyph-name="integral" unicode="&#x222b;" horiz-adv-x="539" 
d="M145 37l84 469q37 208 240 208q64 0 104.5 -23.5t40.5 -64.5q0 -48 -42 -102q-36 31 -77 31q-34 0 -47.5 -18t-19.5 -51l-84 -469q-37 -208 -240 -208q-64 0 -104.5 23.5t-40.5 64.5q0 48 42 102q36 -31 77 -31q34 0 47.5 18t19.5 51z" />
    <glyph glyph-name="approxequal" unicode="&#x2248;" 
d="M289 529q33 0 82 -27t76 -27q43 0 99 70l90 -56q-43 -74 -104 -124.5t-122 -50.5q-31 0 -81.5 27t-76.5 27q-46 0 -98 -70l-91 56q42 73 103.5 124t122.5 51zM246 285q32 0 82 -27t76 -27q45 0 98 70l90 -56q-42 -73 -103.5 -124t-122.5 -51q-32 0 -81.5 27t-75.5 27
q-45 0 -99 -70l-90 56q42 73 103.5 124t122.5 51z" />
    <glyph glyph-name="notequal" unicode="&#x2260;" 
d="M607 344h-175l-38 -89h197l-26 -149h-233l-87 -206h-143l88 206h-138l26 149h174l37 89h-195l26 149h232l88 209h142l-88 -209h139z" />
    <glyph glyph-name="lessequal" unicode="&#x2264;" 
d="M96 312l19 110l515 258l-33 -191l-282 -126l237 -125l-42 -238h-470l20 112h365z" />
    <glyph glyph-name="greaterequal" unicode="&#x2265;" 
d="M613 422l-20 -110l-400 -200h365l-20 -112h-469l44 246l279 125l-235 126l32 183z" />
    <glyph glyph-name="lozenge" unicode="&#x25ca;" horiz-adv-x="618" 
d="M471 702l161 -352l-285 -352h-137l-160 352l284 352h137zM369 507l-117 -157l62 -156l116 156z" />
    <glyph glyph-name="uniF8FF" unicode="&#xf8ff;" horiz-adv-x="889" 
d="M710 189q0 -30 -8 -46t-29 -26l-203 -104v239q0 27 18 37l145 74q13 7 29 7q21 0 34.5 -14t13.5 -40v-127zM632 472q24 -12 24 -36q0 -28 -33 -45l-148 -75q-31 -16 -31 -61v-255l-265 135v260q0 36 29 52l165 84q37 19 69 19q33 0 75 -21z" />
    <glyph glyph-name="a.superior" horiz-adv-x="343" 
d="M371 397h-111q-17 9 -24 24q-29 -29 -79 -29q-33 0 -56.5 19.5t-23.5 59.5q0 120 169 120h12q1 11 -6 17.5t-21 6.5q-55 0 -94 -28q-17 20 -17 50q0 20 14 34.5t36.5 21.5t44.5 10t45 3q65 0 98.5 -30.5t22.5 -93.5l-17 -100q-9 -49 7 -85zM213 485q19 0 29 16l4 24h-13
q-13 0 -22 -8t-9 -20t11 -12z" />
    <glyph glyph-name="o.superior" horiz-adv-x="366" 
d="M220 525q0 -39 18 -39q19 0 30.5 26.5t11.5 60.5q0 38 -19 38q-18 0 -29.5 -25.5t-11.5 -60.5zM85 521q0 82 50 133.5t137 51.5q67 0 104.5 -35t37.5 -97q0 -80 -50.5 -132t-136.5 -52q-67 0 -104.5 35t-37.5 96z" />
    </font>
</defs>
</svg>
